<svg width="231" height="206" viewBox="0 0 231 206" fill="none" xmlns="http://www.w3.org/2000/svg">
<path d="M222.782 108.812C223.934 93.4812 220.361 77.5164 215.577 63.2807C208.488 42.0712 194.771 20.3431 171.602 15.3289C158.231 12.4471 144.629 15.5594 133.218 22.7637C122.209 29.7375 113.622 38.7284 100.078 40.4575C86.3609 42.2441 72.2981 41.4949 58.5234 41.4949C23.1359 41.4949 -5.62368 78.6691 1.58062 117.457C8.72729 156.245 42.5587 183.103 71.3183 183.103C97.1385 183.103 118.406 167.599 142.9 163.449C155.061 161.375 167.28 163.853 179.325 160.741C193.33 157.167 206.471 148.58 214.194 136.188C219.496 127.716 222.032 118.379 222.782 108.812Z" fill="#F08E4B"/>
<path opacity="0.7" d="M222.782 108.812C223.934 93.4812 220.361 77.5164 215.577 63.2807C208.488 42.0712 194.771 20.3431 171.602 15.3289C158.231 12.4471 144.629 15.5594 133.218 22.7637C122.209 29.7375 113.622 38.7284 100.078 40.4575C86.3609 42.2441 72.2981 41.4949 58.5234 41.4949C23.1359 41.4949 -5.62368 78.6691 1.58062 117.457C8.72729 156.245 42.5587 183.103 71.3183 183.103C97.1385 183.103 118.406 167.599 142.9 163.449C155.061 161.375 167.28 163.853 179.325 160.741C193.33 157.167 206.471 148.58 214.194 136.188C219.496 127.716 222.032 118.379 222.782 108.812Z" fill="white"/>
<path d="M218.631 103.395C218.631 103.395 218.631 100.513 214.597 96.5361C210.563 92.5016 208.027 90.2539 208.027 90.2539C208.027 90.2539 206.01 96.8242 209.756 100.859C213.502 104.893 218.631 108.582 218.631 108.582V103.395Z" fill="#839F32"/>
<path d="M212.811 121.32C212.811 121.32 212.811 118.439 208.777 114.462C204.742 110.427 202.206 108.18 202.206 108.18C202.206 108.18 200.189 114.75 203.935 118.784C207.682 122.819 212.811 126.507 212.811 126.507V121.32Z" fill="#839F32"/>
<path d="M218.403 108.293C218.403 108.293 218.691 105.469 223.129 101.895C227.566 98.3219 230.333 96.3047 230.333 96.3047C230.333 96.3047 231.658 103.048 227.509 106.679C223.359 110.31 217.826 113.422 217.826 113.422L218.403 108.293Z" fill="#839F32"/>
<path d="M211.37 129.444C211.37 129.444 211.947 126.62 216.73 123.565C221.514 120.51 224.511 118.781 224.511 118.781C224.511 118.781 225.087 125.64 220.592 128.81C216.096 131.98 210.275 134.515 210.275 134.515L211.37 129.444Z" fill="#839F32"/>
<path d="M212.639 152.5C212.639 152.5 212.639 149.618 216.673 145.642C220.707 141.607 223.243 139.359 223.243 139.359C223.243 139.359 225.261 145.93 221.514 149.964C217.768 153.999 212.639 157.687 212.639 157.687V152.5Z" fill="#839F32"/>
<path d="M212.581 158.089C212.581 158.089 212.985 155.265 209.584 150.712C206.184 146.159 203.936 143.508 203.936 143.508C203.936 143.508 200.997 149.732 204.109 154.228C207.221 158.723 211.832 163.161 211.832 163.161L212.581 158.089Z" fill="#839F32"/>
<path d="M208.66 174.805C208.66 174.805 208.66 171.923 212.695 167.946C216.729 163.912 219.265 161.664 219.265 161.664C219.265 161.664 221.282 168.234 217.536 172.269C213.79 176.303 208.66 179.992 208.66 179.992V174.805Z" fill="#839F32"/>
<path d="M211.312 189.903C211.312 189.903 210.563 187.137 213.445 182.238C216.326 177.339 218.228 174.457 218.228 174.457C218.228 174.457 221.859 180.336 219.266 185.177C216.672 190.018 212.638 194.917 212.638 194.917L211.312 189.903Z" fill="#839F32"/>
<path d="M218.978 102.703C218.747 105.758 218.401 108.928 217.883 111.579C216.269 119.763 212.35 125.065 210.736 132.442C209.122 139.82 213.675 149.387 212.465 158.897C211.255 168.406 207.566 173.709 208.604 180.049C209.641 186.388 215.232 203.563 215.232 203.563" fill="#839F32"/>
<path d="M218.978 102.703C218.747 105.758 218.401 108.928 217.883 111.579C216.269 119.763 212.35 125.065 210.736 132.442C209.122 139.82 213.675 149.387 212.465 158.897C211.255 168.406 207.566 173.709 208.604 180.049C209.641 186.388 215.232 203.563 215.232 203.563" stroke="#263238" stroke-width="0.816031" stroke-miterlimit="10" stroke-linecap="round" stroke-linejoin="round"/>
<path d="M218.342 110.194L222.664 106.852" stroke="#263238" stroke-width="0.816031" stroke-miterlimit="10" stroke-linecap="round" stroke-linejoin="round"/>
<path d="M218.517 106.392L216.73 103.164" stroke="#263238" stroke-width="0.816031" stroke-miterlimit="10" stroke-linecap="round" stroke-linejoin="round"/>
<path d="M211.024 132.156C211.024 132.156 214.655 129.447 218.343 126.738L211.024 132.156Z" fill="#839F32"/>
<path d="M211.024 132.156C211.024 132.156 214.655 129.447 218.343 126.738" stroke="#263238" stroke-width="0.816031" stroke-miterlimit="10" stroke-linecap="round" stroke-linejoin="round"/>
<path d="M212.811 126.449C212.811 126.449 209.814 120.513 206.355 116.594L212.811 126.449Z" fill="#839F32"/>
<path d="M212.811 126.449C212.811 126.449 209.814 120.513 206.355 116.594" stroke="#263238" stroke-width="0.816031" stroke-miterlimit="10" stroke-linecap="round" stroke-linejoin="round"/>
<path d="M212.81 156.593C212.81 156.593 215.634 151.06 220.533 146.219L212.81 156.593Z" fill="#839F32"/>
<path d="M212.81 156.593C212.81 156.593 215.634 151.06 220.533 146.219" stroke="#263238" stroke-width="0.816031" stroke-miterlimit="10" stroke-linecap="round" stroke-linejoin="round"/>
<path d="M212.119 160.568C212.119 160.568 210.332 156.245 208.2 153.133C206.067 150.021 205.779 149.617 205.779 149.617" fill="#839F32"/>
<path d="M212.119 160.568C212.119 160.568 210.332 156.245 208.2 153.133C206.067 150.021 205.779 149.617 205.779 149.617" stroke="#263238" stroke-width="0.816031" stroke-miterlimit="10" stroke-linecap="round" stroke-linejoin="round"/>
<path d="M208.66 180.049C208.66 180.049 210.101 176.36 211.945 173.478C213.732 170.539 216.153 167.945 216.153 167.945" fill="#839F32"/>
<path d="M208.66 180.049C208.66 180.049 210.101 176.36 211.945 173.478C213.732 170.539 216.153 167.945 216.153 167.945" stroke="#263238" stroke-width="0.816031" stroke-miterlimit="10" stroke-linecap="round" stroke-linejoin="round"/>
<path d="M212.637 194.917C212.637 194.917 212.234 191.459 213.732 188.578C215.231 185.638 216.96 181.834 217.651 180.336" fill="#839F32"/>
<path d="M212.637 194.917C212.637 194.917 212.234 191.459 213.732 188.578C215.231 185.638 216.96 181.834 217.651 180.336" stroke="#263238" stroke-width="0.816031" stroke-miterlimit="10" stroke-linecap="round" stroke-linejoin="round"/>
<path d="M185.893 141.723C185.893 141.723 185.604 139.936 187.679 136.997C189.754 134.057 191.137 132.328 191.137 132.328C191.137 132.328 193.097 136.247 191.195 139.187C189.293 142.126 186.469 145.008 186.469 145.008L185.893 141.723Z" fill="#839F32"/>
<path d="M191.484 152.328C191.484 152.328 191.196 150.541 193.271 147.602C195.346 144.663 196.729 142.934 196.729 142.934C196.729 142.934 198.689 146.853 196.787 149.792C194.885 152.731 192.061 155.613 192.061 155.613L191.484 152.328Z" fill="#839F32"/>
<path d="M186.585 144.721C186.585 144.721 186.066 142.992 182.954 141.205C179.784 139.476 177.824 138.496 177.824 138.496C177.824 138.496 177.767 142.876 180.706 144.663C183.703 146.45 187.507 147.833 187.507 147.833L186.585 144.721Z" fill="#839F32"/>
<path d="M193.269 157.225C193.269 157.225 192.578 155.554 189.293 154.113C185.95 152.672 183.875 151.98 183.875 151.98C183.875 151.98 184.278 156.361 187.391 157.859C190.561 159.358 194.48 160.337 194.48 160.337L193.269 157.225Z" fill="#839F32"/>
<path d="M194.942 171.808C194.942 171.808 194.654 170.021 191.657 167.946C188.718 165.871 186.816 164.719 186.816 164.719C186.816 164.719 186.297 169.099 189.064 171.174C191.83 173.306 195.461 175.035 195.461 175.035L194.942 171.808Z" fill="#839F32"/>
<path d="M195.575 175.383C195.575 175.383 194.998 173.654 196.67 170.426C198.283 167.199 199.436 165.297 199.436 165.297C199.436 165.297 201.972 168.87 200.473 172.04C199.033 175.21 196.612 178.495 196.612 178.495L195.575 175.383Z" fill="#839F32"/>
<path d="M200.647 189.847C200.647 189.847 200.877 188.06 203.701 185.813C206.525 183.565 208.312 182.297 208.312 182.297C208.312 182.297 209.119 186.619 206.468 188.867C203.816 191.115 200.301 193.132 200.301 193.132L200.647 189.847Z" fill="#839F32"/>
<path d="M199.897 185.409C199.897 185.409 199.609 183.623 196.612 181.548C193.673 179.473 191.771 178.32 191.771 178.32C191.771 178.32 191.252 182.701 194.019 184.775C196.785 186.908 200.416 188.637 200.416 188.637L199.897 185.409Z" fill="#839F32"/>
<path d="M199.842 195.148C199.842 195.148 200.015 193.304 197.652 190.595C195.346 187.829 193.79 186.215 193.79 186.215C193.79 186.215 192.176 190.307 194.309 193.016C196.441 195.725 199.554 198.376 199.554 198.376L199.842 195.148Z" fill="#839F32"/>
<path d="M185.549 141.262C186.01 143.164 186.586 145.123 187.22 146.737C189.122 151.694 192.177 154.575 193.963 159.071C195.75 163.566 193.963 170.021 195.75 175.842C197.537 181.663 200.419 184.603 200.476 188.695C200.476 192.787 198.862 204.141 198.862 204.141" fill="#839F32"/>
<path d="M185.549 141.262C186.01 143.164 186.586 145.123 187.22 146.737C189.122 151.694 192.177 154.575 193.963 159.071C195.75 163.566 193.963 170.021 195.75 175.842C197.537 181.663 200.419 184.603 200.476 188.695C200.476 192.787 198.862 204.141 198.862 204.141" stroke="#263238" stroke-width="0.816031" stroke-miterlimit="10" stroke-linecap="round" stroke-linejoin="round"/>
<path d="M186.815 145.93L183.703 144.316" stroke="#263238" stroke-width="0.816031" stroke-miterlimit="10" stroke-linecap="round" stroke-linejoin="round"/>
<path d="M186.24 143.568L187.047 141.32" stroke="#263238" stroke-width="0.816031" stroke-miterlimit="10" stroke-linecap="round" stroke-linejoin="round"/>
<path d="M193.789 158.898C193.789 158.898 191.195 157.573 188.602 156.305L193.789 158.898Z" fill="#839F32"/>
<path d="M193.789 158.898C193.789 158.898 191.195 157.573 188.602 156.305" stroke="#263238" stroke-width="0.816031" stroke-miterlimit="10" stroke-linecap="round" stroke-linejoin="round"/>
<path d="M192.06 155.554C192.06 155.554 193.328 151.519 195 148.695L192.06 155.554Z" fill="#839F32"/>
<path d="M192.06 155.554C192.06 155.554 193.328 151.519 195 148.695" stroke="#263238" stroke-width="0.816031" stroke-miterlimit="10" stroke-linecap="round" stroke-linejoin="round"/>
<path d="M195.287 174.402C195.287 174.402 192.924 171.232 189.293 168.754L195.287 174.402Z" fill="#839F32"/>
<path d="M195.287 174.402C195.287 174.402 192.924 171.232 189.293 168.754" stroke="#263238" stroke-width="0.816031" stroke-miterlimit="10" stroke-linecap="round" stroke-linejoin="round"/>
<path d="M196.152 176.878C196.152 176.878 196.844 173.997 197.824 171.806C198.804 169.616 198.976 169.328 198.976 169.328" fill="#839F32"/>
<path d="M196.152 176.878C196.152 176.878 196.844 173.997 197.824 171.806C198.804 169.616 198.976 169.328 198.976 169.328" stroke="#263238" stroke-width="0.816031" stroke-miterlimit="10" stroke-linecap="round" stroke-linejoin="round"/>
<path d="M200.303 191.806C200.303 191.806 202.32 189.328 203.588 188.348C204.856 187.426 205.72 186.504 205.72 186.504" fill="#839F32"/>
<path d="M200.303 191.806C200.303 191.806 202.32 189.328 203.588 188.348C204.856 187.426 205.72 186.504 205.72 186.504" stroke="#263238" stroke-width="0.816031" stroke-miterlimit="10" stroke-linecap="round" stroke-linejoin="round"/>
<path d="M200.474 188.695C200.474 188.695 199.149 186.563 197.708 184.892C196.267 183.278 194.48 181.895 194.48 181.895" fill="#839F32"/>
<path d="M200.474 188.695C200.474 188.695 199.149 186.563 197.708 184.892C196.267 183.278 194.48 181.895 194.48 181.895" stroke="#263238" stroke-width="0.816031" stroke-miterlimit="10" stroke-linecap="round" stroke-linejoin="round"/>
<path d="M199.554 198.435C199.554 198.435 199.439 196.245 198.171 194.574C196.903 192.902 195.404 190.712 194.828 189.848" fill="#839F32"/>
<path d="M199.554 198.435C199.554 198.435 199.439 196.245 198.171 194.574C196.903 192.902 195.404 190.712 194.828 189.848" stroke="#263238" stroke-width="0.816031" stroke-miterlimit="10" stroke-linecap="round" stroke-linejoin="round"/>
<path d="M22.158 116.597L19.6797 109.392L22.158 112.447L20.1984 101.669L23.253 109.392L24.3481 94.2344L26.1347 108.701L28.1519 105.761V109.392L30.4573 104.551L29.1894 113.023L31.3795 111.582L27.979 116.251L22.158 116.597Z" fill="#839F32"/>
<path d="M30.1112 114.809H20.7168L22.4458 133.713H28.4398L30.1112 114.809Z" fill="#263238" stroke="#263238" stroke-width="0.816031" stroke-miterlimit="10" stroke-linecap="round" stroke-linejoin="round"/>
<path d="M47.6892 133.539H15.7598V201.202H47.6892V133.539Z" fill="white" stroke="#263238" stroke-width="0.816031" stroke-miterlimit="10" stroke-linecap="round" stroke-linejoin="round"/>
<path d="M49.4184 133.539H31.7246V201.202H49.4184V133.539Z" fill="white" stroke="#263238" stroke-width="0.816031" stroke-miterlimit="10" stroke-linecap="round" stroke-linejoin="round"/>
<path d="M47.4588 133.539H31.7246V201.202H47.4588V133.539Z" fill="#263238" stroke="#263238" stroke-width="0.816031" stroke-miterlimit="10" stroke-linecap="round" stroke-linejoin="round"/>
<path d="M45.6721 185.469H31.7246V199.301H45.6721V185.469Z" fill="#839F32" stroke="#263238" stroke-width="0.816031" stroke-miterlimit="10" stroke-linecap="round" stroke-linejoin="round"/>
<path d="M45.6721 186.219H31.7246V188.005H45.6721V186.219Z" fill="white" stroke="#263238" stroke-width="0.816031" stroke-miterlimit="10" stroke-linecap="round" stroke-linejoin="round"/>
<path d="M45.6721 196.418H31.7246V198.205H45.6721V196.418Z" fill="white" stroke="#263238" stroke-width="0.816031" stroke-miterlimit="10" stroke-linecap="round" stroke-linejoin="round"/>
<path d="M34.375 185.758V203.279" stroke="#263238" stroke-width="0.816031" stroke-miterlimit="10" stroke-linecap="round" stroke-linejoin="round"/>
<path d="M39.2754 185.758V203.279" stroke="#263238" stroke-width="0.816031" stroke-miterlimit="10" stroke-linecap="round" stroke-linejoin="round"/>
<path d="M43.5391 185.758V203.279" stroke="#263238" stroke-width="0.816031" stroke-miterlimit="10" stroke-linecap="round" stroke-linejoin="round"/>
<path d="M45.6721 136.02H31.7246V156.422H45.6721V136.02Z" fill="#839F32" stroke="#263238" stroke-width="0.816031" stroke-miterlimit="10" stroke-linecap="round" stroke-linejoin="round"/>
<path d="M45.6721 136.883H31.7246V138.9H45.6721V136.883Z" fill="white" stroke="#263238" stroke-width="0.816031" stroke-miterlimit="10" stroke-linecap="round" stroke-linejoin="round"/>
<path d="M45.6721 149.969H31.7246V151.986H45.6721V149.969Z" fill="white" stroke="#263238" stroke-width="0.816031" stroke-miterlimit="10" stroke-linecap="round" stroke-linejoin="round"/>
<path d="M34.375 136.367V156.251" stroke="#263238" stroke-width="0.816031" stroke-miterlimit="10" stroke-linecap="round" stroke-linejoin="round"/>
<path d="M39.2754 136.367V156.251" stroke="#263238" stroke-width="0.816031" stroke-miterlimit="10" stroke-linecap="round" stroke-linejoin="round"/>
<path d="M43.5391 136.367V156.251" stroke="#263238" stroke-width="0.816031" stroke-miterlimit="10" stroke-linecap="round" stroke-linejoin="round"/>
<path d="M45.6721 160.57H31.7246V180.973H45.6721V160.57Z" fill="#839F32" stroke="#263238" stroke-width="0.816031" stroke-miterlimit="10" stroke-linecap="round" stroke-linejoin="round"/>
<path d="M45.6721 161.434H31.7246V163.451H45.6721V161.434Z" fill="white" stroke="#263238" stroke-width="0.816031" stroke-miterlimit="10" stroke-linecap="round" stroke-linejoin="round"/>
<path d="M45.6721 174.52H31.7246V176.537H45.6721V174.52Z" fill="white" stroke="#263238" stroke-width="0.816031" stroke-miterlimit="10" stroke-linecap="round" stroke-linejoin="round"/>
<path d="M34.375 160.918V180.802" stroke="#263238" stroke-width="0.816031" stroke-miterlimit="10" stroke-linecap="round" stroke-linejoin="round"/>
<path d="M39.2754 160.918V180.802" stroke="#263238" stroke-width="0.816031" stroke-miterlimit="10" stroke-linecap="round" stroke-linejoin="round"/>
<path d="M43.5391 160.918V180.802" stroke="#263238" stroke-width="0.816031" stroke-miterlimit="10" stroke-linecap="round" stroke-linejoin="round"/>
<path d="M45.7376 156.27H31.4727V158.215H45.7376V156.27Z" fill="white" stroke="#263238" stroke-width="0.816031" stroke-miterlimit="10" stroke-linecap="round" stroke-linejoin="round"/>
<path d="M47.6894 180.859H31.7246V183.165H47.6894V180.859Z" fill="white" stroke="#263238" stroke-width="0.816031" stroke-miterlimit="10" stroke-linecap="round" stroke-linejoin="round"/>
<path d="M47.6895 133.539V201.202" stroke="#263238" stroke-width="0.816031" stroke-miterlimit="10" stroke-linecap="round" stroke-linejoin="round"/>
<path d="M29.4766 133.542V201.205H31.7243V136.02H47.4009V133.484L29.4766 133.542Z" fill="white" stroke="#263238" stroke-width="0.816031" stroke-miterlimit="10" stroke-linecap="round" stroke-linejoin="round"/>
<path d="M31.7246 136.017V133.539" stroke="#263238" stroke-width="0.816031" stroke-miterlimit="10" stroke-linecap="round" stroke-linejoin="round"/>
<path d="M44.363 102.693C42.6916 99.4655 42 97.1602 42 96.5838C42 95.5464 44.3054 94.9124 44.3054 94.9124C47.8787 93.0105 64.8232 95.7769 72.431 97.0449C80.0387 98.3128 85.3411 98.3129 85.3411 98.3129C85.3411 98.3129 86.3785 97.4483 87.6465 96.4109C88.9144 95.3735 94.8508 88.3997 97.1562 87.7658C99.4615 87.1318 101.594 88.6303 101.594 88.6303C101.594 88.6303 105.398 90.9356 104.764 91.3967C104.13 91.8002 94.8508 99.869 92.4878 101.31C90.1824 102.808 85.2835 102.174 81.0761 102.981C77.4452 103.73 62.6908 104.595 59.2903 104.883C59.2903 104.883 55.8899 105.921 51.6826 104.249" fill="#FFBE9D"/>
<mask id="mask0_4495_31366" style="mask-type:luminance" maskUnits="userSpaceOnUse" x="42" y="87" width="63" height="19">
<path d="M44.365 102.693C42.6936 99.4655 42.002 97.1602 42.002 96.5838C42.002 95.5464 44.3073 94.9124 44.3073 94.9124C47.8807 93.0105 64.8252 95.7769 72.4329 97.0449C80.0407 98.3128 85.343 98.3129 85.343 98.3129C85.343 98.3129 86.3805 97.4483 87.6484 96.4109C88.9164 95.3735 94.8527 88.3997 97.1581 87.7658C99.4635 87.1318 101.596 88.6303 101.596 88.6303C101.596 88.6303 105.4 90.9356 104.766 91.3967C104.132 91.8002 94.8527 99.869 92.4897 101.31C90.1843 102.808 85.2854 102.174 81.0781 102.981C77.4471 103.73 62.6927 104.595 59.2923 104.883C59.2923 104.883 55.8919 105.921 51.6845 104.249" fill="white"/>
</mask>
<g mask="url(#mask0_4495_31366)">
<path d="M101.596 88.5717C101.596 88.5717 99.4635 87.0732 97.1581 87.7072C94.8527 88.3411 88.9164 95.3149 87.6484 96.3523C86.3805 97.3897 85.343 98.2543 85.343 98.2543C85.343 98.2543 80.0407 98.2543 72.4329 96.9863C64.8252 95.7183 47.8807 92.9519 44.3073 94.8538C44.3073 94.8538 42.002 95.4878 42.002 96.5252C42.002 96.7558 42.1749 97.3897 42.463 98.2543C42.6359 98.3119 42.7512 98.3695 42.7512 98.3695C42.7512 98.3695 46.9585 97.9085 56.0648 98.139C65.171 98.3695 86.2652 99.5799 87.6484 100.099C88.2824 100.329 92.3168 99.4069 96.8699 97.7932C100.328 94.9691 104.42 91.4534 104.823 91.2229C105.457 90.8771 101.596 88.5717 101.596 88.5717Z" fill="#FFBE9D"/>
</g>
<path d="M127.875 121.483C128.625 119.985 130.181 119.062 131.852 119.062H170.294C170.294 119.062 173.061 119.062 172.254 124.365C171.447 129.667 160.035 161.885 157.269 171.625C154.502 181.365 153.926 201.941 153.926 201.941H107.819C107.819 201.883 111.507 152.779 127.875 121.483Z" fill="white"/>
<mask id="mask1_4495_31366" style="mask-type:luminance" maskUnits="userSpaceOnUse" x="107" y="119" width="66" height="83">
<path d="M127.875 121.483C128.625 119.985 130.181 119.062 131.852 119.062H170.294C170.294 119.062 173.061 119.062 172.254 124.365C171.447 129.667 160.035 161.885 157.269 171.625C154.502 181.365 153.926 201.941 153.926 201.941H107.819C107.819 201.883 111.507 152.779 127.875 121.483Z" fill="white"/>
</mask>
<g mask="url(#mask1_4495_31366)">
<path opacity="0.16" d="M145.224 119.121H131.91C130.239 119.121 128.683 120.043 127.933 121.542C111.507 152.837 107.819 201.942 107.819 201.942H128.51L133.581 182.577L154.849 186.957C155.021 185.343 155.194 183.672 155.367 182.058L154.906 176.871C154.906 176.871 150.526 172.26 149.2 171.165C147.817 170.012 148.739 167.937 148.509 159.004C148.278 150.071 140.267 143.616 137.27 138.14C134.273 132.608 138.884 129.207 142.976 123.674C144.474 121.657 145.051 120.159 145.224 119.121Z" fill="#1E1E1E"/>
</g>
<path d="M127.875 121.483C128.625 119.985 130.181 119.062 131.852 119.062H170.294C170.294 119.062 173.061 119.062 172.254 124.365C171.447 129.667 160.035 161.885 157.269 171.625C154.502 181.365 153.926 201.941 153.926 201.941H107.819C107.819 201.883 111.507 152.779 127.875 121.483Z" stroke="#263238" stroke-width="0.816031" stroke-miterlimit="10" stroke-linecap="round" stroke-linejoin="round"/>
<path d="M163.665 128.284C159.804 137.333 151.562 173.239 150.236 201.941H153.925C153.925 201.941 154.501 181.365 157.268 171.625C160.034 161.885 171.446 129.667 172.253 124.365C173.06 119.062 170.293 119.062 170.293 119.062C170.293 119.062 166.777 120.964 163.665 128.284Z" fill="#263238" stroke="#263238" stroke-width="0.816031" stroke-miterlimit="10" stroke-linecap="round" stroke-linejoin="round"/>
<path d="M96.1184 110.129C96.1184 110.129 90.0092 106.555 87.6462 100.216C85.3408 93.8758 105.859 83.7321 114.734 83.0982C123.61 82.4642 126.146 84.7696 131.448 93.8758C136.751 102.982 140.324 115.431 137.558 121.598C134.791 127.707 130.18 129.206 133.523 134.278C136.924 139.349 146.433 153.758 145.799 160.501C145.165 167.244 138.595 173.181 129.085 173.815C119.576 174.449 106.896 168.743 96.2913 159.464C85.7442 150.185 88.453 136.41 92.2569 131.972C96.0608 127.534 101.767 125.863 102.17 121.425C102.689 116.93 96.1184 110.129 96.1184 110.129Z" fill="#263238" stroke="#263238" stroke-width="0.816031" stroke-miterlimit="10" stroke-linecap="round" stroke-linejoin="round"/>
<path d="M42 96.5859C42 96.6436 42 96.6436 42 96.7012C42 96.7012 42 96.6436 42 96.5859ZM44.363 102.695C42.9798 100.102 42.2882 98.0268 42.0576 97.1046C42.2882 98.0268 43.0374 100.102 44.363 102.695ZM42 96.7588C42 96.8165 42 96.8165 42 96.8741C42 96.8165 42 96.8165 42 96.7588ZM42.0576 96.9317C42.0576 96.9894 42.0576 97.047 42.1153 97.1046C42.0576 97.047 42.0576 96.9894 42.0576 96.9317ZM44.363 102.695C45.9768 105.865 48.5703 109.899 52.3166 113.934C59.9243 122.176 81.9407 143.731 84.0155 145.229C86.148 146.728 85.514 150.935 84.0155 155.143C82.517 159.35 77.0417 165.517 77.2723 172.26C77.5028 179.003 79.5776 189.377 79.4047 191.51C79.1742 193.642 73.9295 200.789 73.9295 200.789H128.509C128.509 200.789 121.708 192.144 121.708 189.204C121.708 186.265 131.045 148.342 131.449 145.633C131.852 142.866 130.181 140.964 126.78 140.792C123.38 140.561 110.47 137.852 109.836 135.72C109.202 133.587 113.236 125.576 113.236 125.576L100.557 126.21C100.557 126.21 99.9226 131.685 99.0581 132.78C98.1936 133.818 96.9256 131.743 93.9863 130.244C91.0469 128.746 85.3411 127.478 83.2086 125.807C81.0761 124.135 60.7888 105.058 60.7888 105.058" fill="#F28941"/>
<mask id="mask2_4495_31366" style="mask-type:luminance" maskUnits="userSpaceOnUse" x="42" y="96" width="90" height="105">
<path d="M42.002 96.5859C42.002 96.6436 42.002 96.6436 42.002 96.7012C42.002 96.7012 42.002 96.6436 42.002 96.5859ZM44.365 102.695C42.9817 100.102 42.2901 98.0268 42.0596 97.1046C42.2901 98.0268 43.0394 100.102 44.365 102.695ZM42.002 96.7588C42.002 96.8165 42.002 96.8165 42.002 96.8741C42.002 96.8165 42.002 96.8165 42.002 96.7588ZM42.0596 96.9317C42.0596 96.9894 42.0596 97.047 42.1172 97.1046C42.0596 97.047 42.0596 96.9894 42.0596 96.9317ZM44.365 102.695C45.9787 105.865 48.5723 109.899 52.3185 113.934C59.9263 122.176 81.9426 143.731 84.0175 145.229C86.1499 146.728 85.5159 150.935 84.0175 155.143C82.519 159.35 77.0437 165.517 77.2742 172.26C77.5048 179.003 79.5796 189.377 79.4067 191.51C79.1762 193.642 73.9314 200.789 73.9314 200.789H128.511C128.511 200.789 121.71 192.144 121.71 189.204C121.71 186.265 131.047 148.342 131.451 145.633C131.854 142.866 130.183 140.964 126.782 140.792C123.382 140.561 110.472 137.852 109.838 135.72C109.204 133.587 113.238 125.576 113.238 125.576L100.559 126.21C100.559 126.21 99.9246 131.685 99.06 132.78C98.1955 133.818 96.9276 131.743 93.9882 130.244C91.0489 128.746 85.343 127.478 83.2106 125.807C81.0781 124.135 60.7908 105.058 60.7908 105.058" fill="white"/>
</mask>
<g mask="url(#mask2_4495_31366)">
<path d="M75.6037 118.892C69.091 112.84 60.7916 105.117 60.7916 105.117L56.008 104.426L55.4316 104.772C55.4316 104.772 68.9757 116.76 71.8575 118.085C73.7018 118.892 74.6239 118.777 75.6037 118.892Z" fill="#455A64"/>
</g>
<mask id="mask3_4495_31366" style="mask-type:luminance" maskUnits="userSpaceOnUse" x="42" y="96" width="90" height="105">
<path d="M42.002 96.5859C42.002 96.6436 42.002 96.6436 42.002 96.7012C42.002 96.7012 42.002 96.6436 42.002 96.5859ZM44.365 102.695C42.9817 100.102 42.2901 98.0268 42.0596 97.1046C42.2901 98.0268 43.0394 100.102 44.365 102.695ZM42.002 96.7588C42.002 96.8165 42.002 96.8165 42.002 96.8741C42.002 96.8165 42.002 96.8165 42.002 96.7588ZM42.0596 96.9317C42.0596 96.9894 42.0596 97.047 42.1172 97.1046C42.0596 97.047 42.0596 96.9894 42.0596 96.9317ZM44.365 102.695C45.9787 105.865 48.5723 109.899 52.3185 113.934C59.9263 122.176 81.9426 143.731 84.0175 145.229C86.1499 146.728 85.5159 150.935 84.0175 155.143C82.519 159.35 77.0437 165.517 77.2742 172.26C77.5048 179.003 79.5796 189.377 79.4067 191.51C79.1762 193.642 73.9314 200.789 73.9314 200.789H128.511C128.511 200.789 121.71 192.144 121.71 189.204C121.71 186.265 131.047 148.342 131.451 145.633C131.854 142.866 130.183 140.964 126.782 140.792C123.382 140.561 110.472 137.852 109.838 135.72C109.204 133.587 113.238 125.576 113.238 125.576L100.559 126.21C100.559 126.21 99.9246 131.685 99.06 132.78C98.1955 133.818 96.9276 131.743 93.9882 130.244C91.0489 128.746 85.343 127.478 83.2106 125.807C81.0781 124.135 60.7908 105.058 60.7908 105.058" fill="white"/>
</mask>
<g mask="url(#mask3_4495_31366)">
<path d="M82.4601 125.113C82.2872 124.998 82.1143 124.825 81.9414 124.652C82.2296 125.113 82.3448 125.344 82.3448 125.344C82.3448 125.344 82.4025 125.286 82.4601 125.113Z" fill="#455A64"/>
</g>
<mask id="mask4_4495_31366" style="mask-type:luminance" maskUnits="userSpaceOnUse" x="42" y="96" width="90" height="105">
<path d="M42.002 96.5859C42.002 96.6436 42.002 96.6436 42.002 96.7012C42.002 96.7012 42.002 96.6436 42.002 96.5859ZM44.365 102.695C42.9817 100.102 42.2901 98.0268 42.0596 97.1046C42.2901 98.0268 43.0394 100.102 44.365 102.695ZM42.002 96.7588C42.002 96.8165 42.002 96.8165 42.002 96.8741C42.002 96.8165 42.002 96.8165 42.002 96.7588ZM42.0596 96.9317C42.0596 96.9894 42.0596 97.047 42.1172 97.1046C42.0596 97.047 42.0596 96.9894 42.0596 96.9317ZM44.365 102.695C45.9787 105.865 48.5723 109.899 52.3185 113.934C59.9263 122.176 81.9426 143.731 84.0175 145.229C86.1499 146.728 85.5159 150.935 84.0175 155.143C82.519 159.35 77.0437 165.517 77.2742 172.26C77.5048 179.003 79.5796 189.377 79.4067 191.51C79.1762 193.642 73.9314 200.789 73.9314 200.789H128.511C128.511 200.789 121.71 192.144 121.71 189.204C121.71 186.265 131.047 148.342 131.451 145.633C131.854 142.866 130.183 140.964 126.782 140.792C123.382 140.561 110.472 137.852 109.838 135.72C109.204 133.587 113.238 125.576 113.238 125.576L100.559 126.21C100.559 126.21 99.9246 131.685 99.06 132.78C98.1955 133.818 96.9276 131.743 93.9882 130.244C91.0489 128.746 85.343 127.478 83.2106 125.807C81.0781 124.135 60.7908 105.058 60.7908 105.058" fill="white"/>
</mask>
<g mask="url(#mask4_4495_31366)">
<path d="M86.4375 127.422C87.4749 129.266 88.57 130.938 88.57 130.938C88.57 130.938 92.1433 132.955 93.0078 132.955C93.8723 132.955 99.2323 135.836 99.2323 135.836C99.2323 135.836 103.67 134.741 102.114 130.938C101.826 130.246 101.192 129.324 100.27 128.286C99.9816 129.958 99.5781 132.148 99.0594 132.782C98.1949 133.819 96.927 131.744 93.9876 130.246C92.0857 129.266 88.9734 128.402 86.4375 127.422Z" fill="white"/>
</g>
<mask id="mask5_4495_31366" style="mask-type:luminance" maskUnits="userSpaceOnUse" x="42" y="96" width="90" height="105">
<path d="M42.002 96.5859C42.002 96.6436 42.002 96.6436 42.002 96.7012C42.002 96.7012 42.002 96.6436 42.002 96.5859ZM44.365 102.695C42.9817 100.102 42.2901 98.0268 42.0596 97.1046C42.2901 98.0268 43.0394 100.102 44.365 102.695ZM42.002 96.7588C42.002 96.8165 42.002 96.8165 42.002 96.8741C42.002 96.8165 42.002 96.8165 42.002 96.7588ZM42.0596 96.9317C42.0596 96.9894 42.0596 97.047 42.1172 97.1046C42.0596 97.047 42.0596 96.9894 42.0596 96.9317ZM44.365 102.695C45.9787 105.865 48.5723 109.899 52.3185 113.934C59.9263 122.176 81.9426 143.731 84.0175 145.229C86.1499 146.728 85.5159 150.935 84.0175 155.143C82.519 159.35 77.0437 165.517 77.2742 172.26C77.5048 179.003 79.5796 189.377 79.4067 191.51C79.1762 193.642 73.9314 200.789 73.9314 200.789H128.511C128.511 200.789 121.71 192.144 121.71 189.204C121.71 186.265 131.047 148.342 131.451 145.633C131.854 142.866 130.183 140.964 126.782 140.792C123.382 140.561 110.472 137.852 109.838 135.72C109.204 133.587 113.238 125.576 113.238 125.576L100.559 126.21C100.559 126.21 99.9246 131.685 99.06 132.78C98.1955 133.818 96.9276 131.743 93.9882 130.244C91.0489 128.746 85.343 127.478 83.2106 125.807C81.0781 124.135 60.7908 105.058 60.7908 105.058" fill="white"/>
</mask>
<g mask="url(#mask5_4495_31366)">
<path d="M75.6037 118.892C69.091 112.84 60.7916 105.117 60.7916 105.117L56.008 104.426L55.4316 104.772C55.4316 104.772 68.9757 116.76 71.8575 118.085C73.7018 118.892 74.6239 118.777 75.6037 118.892Z" fill="#FFBE9D"/>
</g>
<mask id="mask6_4495_31366" style="mask-type:luminance" maskUnits="userSpaceOnUse" x="42" y="96" width="90" height="105">
<path d="M42.002 96.5859C42.002 96.6436 42.002 96.6436 42.002 96.7012C42.002 96.7012 42.002 96.6436 42.002 96.5859ZM44.365 102.695C42.9817 100.102 42.2901 98.0268 42.0596 97.1046C42.2901 98.0268 43.0394 100.102 44.365 102.695ZM42.002 96.7588C42.002 96.8165 42.002 96.8165 42.002 96.8741C42.002 96.8165 42.002 96.8165 42.002 96.7588ZM42.0596 96.9317C42.0596 96.9894 42.0596 97.047 42.1172 97.1046C42.0596 97.047 42.0596 96.9894 42.0596 96.9317ZM44.365 102.695C45.9787 105.865 48.5723 109.899 52.3185 113.934C59.9263 122.176 81.9426 143.731 84.0175 145.229C86.1499 146.728 85.5159 150.935 84.0175 155.143C82.519 159.35 77.0437 165.517 77.2742 172.26C77.5048 179.003 79.5796 189.377 79.4067 191.51C79.1762 193.642 73.9314 200.789 73.9314 200.789H128.511C128.511 200.789 121.71 192.144 121.71 189.204C121.71 186.265 131.047 148.342 131.451 145.633C131.854 142.866 130.183 140.964 126.782 140.792C123.382 140.561 110.472 137.852 109.838 135.72C109.204 133.587 113.238 125.576 113.238 125.576L100.559 126.21C100.559 126.21 99.9246 131.685 99.06 132.78C98.1955 133.818 96.9276 131.743 93.9882 130.244C91.0489 128.746 85.343 127.478 83.2106 125.807C81.0781 124.135 60.7908 105.058 60.7908 105.058" fill="white"/>
</mask>
<g mask="url(#mask6_4495_31366)">
<path d="M82.4601 125.113C82.2872 124.998 82.1143 124.825 81.9414 124.652C82.2296 125.113 82.3448 125.344 82.3448 125.344C82.3448 125.344 82.4025 125.286 82.4601 125.113Z" fill="white"/>
</g>
<mask id="mask7_4495_31366" style="mask-type:luminance" maskUnits="userSpaceOnUse" x="42" y="96" width="90" height="105">
<path d="M42.002 96.5859C42.002 96.6436 42.002 96.6436 42.002 96.7012C42.002 96.7012 42.002 96.6436 42.002 96.5859ZM44.365 102.695C42.9817 100.102 42.2901 98.0268 42.0596 97.1046C42.2901 98.0268 43.0394 100.102 44.365 102.695ZM42.002 96.7588C42.002 96.8165 42.002 96.8165 42.002 96.8741C42.002 96.8165 42.002 96.8165 42.002 96.7588ZM42.0596 96.9317C42.0596 96.9894 42.0596 97.047 42.1172 97.1046C42.0596 97.047 42.0596 96.9894 42.0596 96.9317ZM44.365 102.695C45.9787 105.865 48.5723 109.899 52.3185 113.934C59.9263 122.176 81.9426 143.731 84.0175 145.229C86.1499 146.728 85.5159 150.935 84.0175 155.143C82.519 159.35 77.0437 165.517 77.2742 172.26C77.5048 179.003 79.5796 189.377 79.4067 191.51C79.1762 193.642 73.9314 200.789 73.9314 200.789H128.511C128.511 200.789 121.71 192.144 121.71 189.204C121.71 186.265 131.047 148.342 131.451 145.633C131.854 142.866 130.183 140.964 126.782 140.792C123.382 140.561 110.472 137.852 109.838 135.72C109.204 133.587 113.238 125.576 113.238 125.576L100.559 126.21C100.559 126.21 99.9246 131.685 99.06 132.78C98.1955 133.818 96.9276 131.743 93.9882 130.244C91.0489 128.746 85.343 127.478 83.2106 125.807C81.0781 124.135 60.7908 105.058 60.7908 105.058" fill="white"/>
</mask>
<g mask="url(#mask7_4495_31366)">
<path d="M59.6961 102.695L55.3158 101.715L46.0367 99.6406L44.1348 101.715L49.0913 110.072L54.7395 116.47L58.9468 115.202C58.9468 115.202 62.2896 111.052 62.4625 110.706C62.6354 110.361 61.3098 107.018 60.7911 106.73C60.2724 106.441 56.4109 102.638 56.4109 102.638C56.4109 102.638 53.9903 103.617 54.2208 103.041C54.4513 102.465 53.5868 102.004 53.5868 102.004C53.5868 102.004 56.5838 103.329 56.8143 103.502C57.1025 103.733 59.6961 102.695 59.6961 102.695Z" fill="#FFBE9D"/>
</g>
<path d="M44.363 102.695C45.9768 105.865 48.5703 109.899 52.3166 113.934C59.9243 122.176 81.9407 143.731 84.0155 145.229C86.148 146.728 85.514 150.935 84.0155 155.143C82.517 159.35 77.0417 165.517 77.2723 172.26C77.5028 179.003 79.5776 189.377 79.4047 191.51C79.1742 193.642 73.9295 200.789 73.9295 200.789H128.509C128.509 200.789 121.708 192.144 121.708 189.204C121.708 186.265 131.045 148.342 131.449 145.633C131.852 142.866 130.181 140.964 126.78 140.792C123.38 140.561 110.47 137.852 109.836 135.72C109.202 133.587 113.236 125.576 113.236 125.576L100.557 126.21C100.557 126.21 99.9226 131.685 99.0581 132.78C98.1936 133.818 96.9256 131.743 93.9863 130.244C91.0469 128.746 85.3411 127.478 83.2086 125.807C81.0761 124.135 60.7888 105.058 60.7888 105.058M42 96.5859C42 96.6436 42 96.6436 42 96.7012C42 96.7012 42 96.6436 42 96.5859ZM44.363 102.695C42.9798 100.102 42.2882 98.0268 42.0576 97.1046C42.2882 98.0268 43.0374 100.102 44.363 102.695ZM42 96.7588C42 96.8165 42 96.8165 42 96.8741C42 96.8165 42 96.8165 42 96.7588ZM42.0576 96.9317C42.0576 96.9894 42.0576 97.047 42.1153 97.1046C42.0576 97.047 42.0576 96.9894 42.0576 96.9317Z" stroke="#263238" stroke-width="0.816031" stroke-miterlimit="10" stroke-linecap="round" stroke-linejoin="round"/>
<path d="M60.7873 105.056C60.7873 105.056 54.0441 105.171 50.2402 102.059" stroke="#263238" stroke-width="0.816031" stroke-miterlimit="10" stroke-linecap="round" stroke-linejoin="round"/>
<path d="M109.893 135.718C109.259 133.585 113.293 125.574 113.293 125.574L100.614 126.208C100.614 126.208 99.9798 131.683 99.1153 132.779C98.2507 133.816 96.9828 131.741 94.0434 130.243C93.8129 130.127 93.5823 130.012 93.2942 129.897L92.5449 141.942C92.5449 141.942 93.64 153.642 107.011 151.394C112.429 150.472 118.192 145.689 123.149 140.271C117.962 139.349 110.354 137.332 109.893 135.718Z" fill="#FFBE9D"/>
<mask id="mask8_4495_31366" style="mask-type:luminance" maskUnits="userSpaceOnUse" x="92" y="125" width="32" height="27">
<path d="M109.893 135.718C109.259 133.585 113.293 125.574 113.293 125.574L100.613 126.208C100.613 126.208 99.9795 131.683 99.115 132.779C98.2505 133.816 96.9825 131.741 94.0432 130.243C93.8126 130.127 93.5821 130.012 93.2939 129.897L92.5447 141.942C92.5447 141.942 93.6397 153.642 107.011 151.394C112.429 150.472 118.192 145.689 123.149 140.271C117.961 139.349 110.354 137.332 109.893 135.718Z" fill="white"/>
</mask>
<g mask="url(#mask8_4495_31366)">
<path d="M109.49 127.19C109.49 127.19 108.741 131.512 108.107 136.238C107.473 140.964 107.011 144.538 107.011 144.538L109.836 135.72L113.005 126.383C113.063 126.383 109.951 126.383 109.49 127.19Z" fill="#455A64"/>
</g>
<mask id="mask9_4495_31366" style="mask-type:luminance" maskUnits="userSpaceOnUse" x="92" y="125" width="32" height="27">
<path d="M109.893 135.718C109.259 133.585 113.293 125.574 113.293 125.574L100.613 126.208C100.613 126.208 99.9795 131.683 99.115 132.779C98.2505 133.816 96.9825 131.741 94.0432 130.243C93.8126 130.127 93.5821 130.012 93.2939 129.897L92.5447 141.942C92.5447 141.942 93.6397 153.642 107.011 151.394C112.429 150.472 118.192 145.689 123.149 140.271C117.961 139.349 110.354 137.332 109.893 135.718Z" fill="white"/>
</mask>
<g mask="url(#mask9_4495_31366)">
<path d="M109.49 127.19C109.49 127.19 108.741 131.512 108.107 136.238C107.473 140.964 107.011 144.538 107.011 144.538L109.836 135.72L113.005 126.383C113.063 126.383 109.951 126.383 109.49 127.19Z" fill="#F28941"/>
</g>
<path d="M99.0562 132.778C98.1917 133.815 96.9238 131.74 93.9844 130.242C92.1401 129.32 89.1431 128.455 86.6648 127.533C85.9732 125.862 85.0511 123.729 84.4747 122.404C83.4373 120.098 81.7083 121.539 81.7083 121.539C81.7083 121.539 80.6709 120.502 79.5758 118.139C78.5384 115.833 76.8094 116.006 74.504 115.603C72.1986 115.199 67.2997 110.762 67.2997 110.762C67.2997 110.762 65.0519 109.032 64.0721 108.168C62.9771 110.3 60.3835 114.104 54.6777 116.467C63.7263 125.919 82.0541 143.844 84.0137 145.227C86.1461 146.725 85.5122 150.933 84.0137 155.14C82.5152 159.347 77.0399 165.514 77.2704 172.257C77.501 179.001 79.5758 189.375 79.4029 191.507C79.23 193.409 75.0227 199.288 74.1005 200.556L76.233 200.787H87.4141C87.3565 195.138 87.3565 171.969 91.218 162.748C95.7134 152.201 99.0562 132.778 99.0562 132.778Z" fill="#455A64"/>
<mask id="mask10_4495_31366" style="mask-type:luminance" maskUnits="userSpaceOnUse" x="54" y="108" width="46" height="93">
<path d="M99.0562 132.778C98.1917 133.815 96.9238 131.74 93.9844 130.242C92.1401 129.32 89.1431 128.455 86.6648 127.533C85.9732 125.862 85.0511 123.729 84.4747 122.404C83.4373 120.098 81.7083 121.539 81.7083 121.539C81.7083 121.539 80.6709 120.502 79.5758 118.139C78.5384 115.833 76.8094 116.006 74.504 115.603C72.1986 115.199 67.2997 110.762 67.2997 110.762C67.2997 110.762 65.0519 109.032 64.0721 108.168C62.9771 110.3 60.3835 114.104 54.6777 116.467C63.7263 125.919 82.0541 143.844 84.0137 145.227C86.1461 146.725 85.5122 150.933 84.0137 155.14C82.5152 159.347 77.0399 165.514 77.2704 172.257C77.501 179.001 79.5758 189.375 79.4029 191.507C79.23 193.409 75.0227 199.288 74.1005 200.556L76.233 200.787H87.4141C87.3565 195.138 87.3565 171.969 91.218 162.748C95.7134 152.201 99.0562 132.778 99.0562 132.778Z" fill="white"/>
</mask>
<g mask="url(#mask10_4495_31366)">
<path opacity="0.16" d="M93.986 130.242C92.1417 129.32 89.1447 128.455 86.6664 127.533C85.9748 125.862 85.0527 123.729 84.4763 122.404C83.4389 120.098 81.7099 121.539 81.7099 121.539C81.7099 121.539 80.6725 120.502 79.5774 118.139C78.54 115.833 76.8109 116.006 74.5056 115.603C72.2002 115.199 67.3013 110.762 67.3013 110.762C67.3013 110.762 65.0535 109.032 64.0737 108.168C63.7279 108.86 63.1516 109.782 62.4023 110.762C66.2062 113.931 70.3559 117.332 71.7968 118.023C74.6785 119.349 75.3701 118.254 77.5602 119.58C79.8079 120.905 82.2286 125.343 82.2286 125.343C82.2286 125.343 83.5542 121.77 84.6492 124.248C85.7443 126.669 88.4531 130.934 88.4531 130.934C88.4531 130.934 92.0264 132.951 92.891 132.951C93.5826 132.951 96.983 134.737 98.4815 135.487C98.8273 133.815 99.0002 132.778 99.0002 132.778C98.251 133.815 96.983 131.683 93.986 130.242Z" fill="#1E1E1E"/>
</g>
<path d="M99.0562 132.778C98.1917 133.815 96.9238 131.74 93.9844 130.242C92.1401 129.32 89.1431 128.455 86.6648 127.533C85.9732 125.862 85.0511 123.729 84.4747 122.404C83.4373 120.098 81.7083 121.539 81.7083 121.539C81.7083 121.539 80.6709 120.502 79.5758 118.139C78.5384 115.833 76.8094 116.006 74.504 115.603C72.1986 115.199 67.2997 110.762 67.2997 110.762C67.2997 110.762 65.0519 109.032 64.0721 108.168C62.9771 110.3 60.3835 114.104 54.6777 116.467C63.7263 125.919 82.0541 143.844 84.0137 145.227C86.1461 146.725 85.5122 150.933 84.0137 155.14C82.5152 159.347 77.0399 165.514 77.2704 172.257C77.501 179.001 79.5758 189.375 79.4029 191.507C79.23 193.409 75.0227 199.288 74.1005 200.556L76.233 200.787H87.4141C87.3565 195.138 87.3565 171.969 91.218 162.748C95.7134 152.201 99.0562 132.778 99.0562 132.778Z" stroke="#263238" stroke-width="0.816031" stroke-miterlimit="10" stroke-linecap="round" stroke-linejoin="round"/>
<path d="M99.229 132.03C99.229 132.03 96.5779 131.223 94.9641 132.664C93.3503 134.105 90.9297 141.367 89.4888 149.263C88.048 157.159 91.2178 162.864 91.2178 162.864C91.2178 162.864 94.5606 154.162 95.5404 149.897C96.5779 145.574 99.229 132.03 99.229 132.03Z" fill="#455A64"/>
<mask id="mask11_4495_31366" style="mask-type:luminance" maskUnits="userSpaceOnUse" x="89" y="131" width="11" height="32">
<path d="M99.229 132.03C99.229 132.03 96.5779 131.223 94.9641 132.664C93.3503 134.105 90.9297 141.367 89.4888 149.263C88.048 157.159 91.2178 162.864 91.2178 162.864C91.2178 162.864 94.5606 154.162 95.5404 149.897C96.5779 145.574 99.229 132.03 99.229 132.03Z" fill="white"/>
</mask>
<g mask="url(#mask11_4495_31366)">
<path opacity="0.16" d="M94.2151 133.296C94.2151 133.296 96.117 132.835 96.9239 133.123C97.7308 133.412 98.7682 134.218 98.7682 134.218L99.2869 132.028C99.2869 132.028 98.019 131.337 96.751 131.625C95.3678 131.855 94.2151 133.296 94.2151 133.296Z" fill="#1E1E1E"/>
</g>
<path d="M99.229 132.03C99.229 132.03 96.5779 131.223 94.9641 132.664C93.3503 134.105 90.9297 141.367 89.4888 149.263C88.048 157.159 91.2178 162.864 91.2178 162.864C91.2178 162.864 94.5606 154.162 95.5404 149.897C96.5779 145.574 99.229 132.03 99.229 132.03Z" stroke="#263238" stroke-width="0.816031" stroke-miterlimit="10" stroke-linecap="round" stroke-linejoin="round"/>
<path d="M81.5374 132.722L84.9378 146.496L77.3301 129.148" stroke="#263238" stroke-width="0.816031" stroke-miterlimit="10" stroke-linecap="round" stroke-linejoin="round"/>
<path d="M103.84 200.847H128.508C128.508 200.847 121.707 192.201 121.707 189.262C121.707 186.323 131.044 148.399 131.447 145.69C131.851 142.924 130.179 141.022 126.779 140.849C123.379 140.619 110.468 137.91 109.834 135.777C109.834 135.777 104.993 152.895 103.264 164.537C101.881 174.45 103.379 195.141 103.84 200.847Z" fill="#455A64"/>
<mask id="mask12_4495_31366" style="mask-type:luminance" maskUnits="userSpaceOnUse" x="102" y="135" width="30" height="66">
<path d="M103.838 200.847H128.506C128.506 200.847 121.705 192.201 121.705 189.262C121.705 186.323 131.042 148.399 131.445 145.69C131.849 142.924 130.177 141.022 126.777 140.849C123.377 140.619 110.466 137.91 109.832 135.777C109.832 135.777 104.991 152.895 103.262 164.537C101.879 174.45 103.377 195.141 103.838 200.847Z" fill="white"/>
</mask>
<g mask="url(#mask12_4495_31366)">
<path opacity="0.16" d="M126.777 140.791C124.011 140.618 114.847 138.716 111.273 136.93L112.541 139.927C112.541 139.927 115.769 141.771 120.092 142.52C124.414 143.269 128.391 143.154 130.984 146.958C131.042 147.016 131.042 147.073 131.1 147.131C131.273 146.382 131.388 145.863 131.388 145.632C131.849 142.924 130.178 141.022 126.777 140.791Z" fill="#1E1E1E"/>
</g>
<path d="M103.84 200.847H128.508C128.508 200.847 121.707 192.201 121.707 189.262C121.707 186.323 131.044 148.399 131.447 145.69C131.851 142.924 130.179 141.022 126.779 140.849C123.379 140.619 110.468 137.91 109.834 135.777C109.834 135.777 104.993 152.895 103.264 164.537C101.881 174.45 103.379 195.141 103.84 200.847Z" stroke="#263238" stroke-width="0.816031" stroke-miterlimit="10" stroke-linecap="round" stroke-linejoin="round"/>
<path d="M109.892 135.719C109.892 135.719 103.379 156.467 103.322 164.478C103.322 164.478 112.601 153.24 113.811 145.344C115.021 137.505 109.892 135.719 109.892 135.719Z" fill="#455A64"/>
<mask id="mask13_4495_31366" style="mask-type:luminance" maskUnits="userSpaceOnUse" x="103" y="135" width="11" height="30">
<path d="M109.892 135.719C109.892 135.719 103.379 156.467 103.321 164.478C103.321 164.478 112.6 153.24 113.811 145.344C115.021 137.505 109.892 135.719 109.892 135.719Z" fill="white"/>
</mask>
<g mask="url(#mask13_4495_31366)">
<path opacity="0.16" d="M108.739 138.37C108.739 138.37 111.679 138.082 113.811 140.848C113.811 140.848 112.543 137.102 109.892 135.719L108.739 138.37Z" fill="#1E1E1E"/>
</g>
<path d="M109.892 135.719C109.892 135.719 103.379 156.467 103.322 164.478C103.322 164.478 112.601 153.24 113.811 145.344C115.021 137.505 109.892 135.719 109.892 135.719Z" stroke="#263238" stroke-width="0.816031" stroke-miterlimit="10" stroke-linecap="round" stroke-linejoin="round"/>
<path d="M179.515 196.983C179.515 196.983 184.299 197.156 187.411 197.617C190.524 198.078 193.694 198.136 193.694 198.136C193.694 198.136 191.964 194.62 190.12 193.64C188.276 192.66 184.933 190.874 182.109 191.277C179.285 191.681 175.308 194.447 175.654 195.369C176 196.291 177.498 196.695 179.515 196.983Z" fill="#FFBE9D"/>
<mask id="mask14_4495_31366" style="mask-type:luminance" maskUnits="userSpaceOnUse" x="175" y="191" width="19" height="8">
<path d="M179.517 196.983C179.517 196.983 184.301 197.156 187.413 197.617C190.526 198.078 193.695 198.136 193.695 198.136C193.695 198.136 191.966 194.62 190.122 193.64C188.278 192.66 184.935 190.874 182.111 191.277C179.287 191.681 175.31 194.447 175.656 195.369C176.002 196.291 177.5 196.695 179.517 196.983Z" fill="white"/>
</mask>
<g mask="url(#mask14_4495_31366)">
<path d="M179.517 196.983C179.517 196.983 184.301 197.156 187.413 197.617C190.526 198.078 193.695 198.136 193.695 198.136C193.695 198.136 191.966 194.62 190.122 193.64C188.278 192.66 184.935 190.874 182.111 191.277C179.287 191.681 175.31 194.447 175.656 195.369C176.002 196.291 177.5 196.695 179.517 196.983Z" fill="#FFBE9D" stroke="#263238" stroke-width="0.408015" stroke-miterlimit="10"/>
</g>
<mask id="mask15_4495_31366" style="mask-type:luminance" maskUnits="userSpaceOnUse" x="175" y="191" width="19" height="8">
<path d="M179.517 196.983C179.517 196.983 184.301 197.156 187.413 197.617C190.526 198.078 193.695 198.136 193.695 198.136C193.695 198.136 191.966 194.62 190.122 193.64C188.278 192.66 184.935 190.874 182.111 191.277C179.287 191.681 175.31 194.447 175.656 195.369C176.002 196.291 177.5 196.695 179.517 196.983Z" fill="white"/>
</mask>
<g mask="url(#mask15_4495_31366)">
<path opacity="0.5" d="M179.517 196.983C179.517 196.983 184.301 197.156 187.413 197.617C190.526 198.078 193.695 198.136 193.695 198.136C193.695 198.136 191.966 194.62 190.122 193.64C188.278 192.66 184.935 190.874 182.111 191.277C179.287 191.681 175.31 194.447 175.656 195.369C176.002 196.291 177.5 196.695 179.517 196.983Z" fill="#FFBE9D" stroke="#263238" stroke-width="0.408015" stroke-miterlimit="10"/>
</g>
<path d="M179.515 196.983C179.515 196.983 184.299 197.156 187.411 197.617C190.524 198.078 193.694 198.136 193.694 198.136C193.694 198.136 191.964 194.62 190.12 193.64C188.276 192.66 184.933 190.874 182.109 191.277C179.285 191.681 175.308 194.447 175.654 195.369C176 196.291 177.498 196.695 179.515 196.983Z" stroke="#263238" stroke-width="0.408015" stroke-miterlimit="10"/>
<path d="M187.41 195.542C187.41 195.542 191.214 193.582 192.136 193.582C193.058 193.582 199.34 197.847 199.052 198.539C198.764 199.23 197.554 199.518 197.093 199.288C196.401 198.942 192.194 197.155 192.194 197.155L189.427 197.789L187.41 195.542Z" fill="white"/>
<mask id="mask16_4495_31366" style="mask-type:luminance" maskUnits="userSpaceOnUse" x="187" y="193" width="13" height="7">
<path d="M187.41 195.542C187.41 195.542 191.214 193.582 192.136 193.582C193.058 193.582 199.34 197.847 199.052 198.539C198.764 199.23 197.554 199.518 197.093 199.288C196.401 198.942 192.194 197.155 192.194 197.155L189.427 197.789L187.41 195.542Z" fill="white"/>
</mask>
<g mask="url(#mask16_4495_31366)">
<path d="M187.41 195.542C187.41 195.542 191.214 193.582 192.136 193.582C193.058 193.582 199.34 197.847 199.052 198.539C198.764 199.23 197.266 199.749 197.093 199.288C196.92 198.769 192.194 197.155 192.194 197.155L189.427 197.789L187.41 195.542Z" fill="#455A64"/>
</g>
<mask id="mask17_4495_31366" style="mask-type:luminance" maskUnits="userSpaceOnUse" x="187" y="193" width="13" height="7">
<path d="M187.41 195.542C187.41 195.542 191.214 193.582 192.136 193.582C193.058 193.582 199.34 197.847 199.052 198.539C198.764 199.23 197.554 199.518 197.093 199.288C196.401 198.942 192.194 197.155 192.194 197.155L189.427 197.789L187.41 195.542Z" fill="white"/>
</mask>
<g mask="url(#mask17_4495_31366)">
<path d="M187.41 195.542C187.41 195.542 191.214 193.582 192.136 193.582C193.058 193.582 199.34 197.847 199.052 198.539C198.764 199.23 197.266 199.749 197.093 199.288C196.92 198.769 192.194 197.155 192.194 197.155L189.427 197.789L187.41 195.542Z" fill="#FFBE9D"/>
</g>
<path d="M187.41 195.542C187.41 195.542 191.214 193.582 192.136 193.582C193.058 193.582 199.34 197.847 199.052 198.539C198.764 199.23 197.554 199.518 197.093 199.288C196.401 198.942 192.194 197.155 192.194 197.155L189.427 197.789L187.41 195.542Z" stroke="#263238" stroke-width="0.408015" stroke-miterlimit="10" stroke-linecap="round" stroke-linejoin="round"/>
<path d="M184.875 192.317C184.875 192.317 189.947 192.144 190.927 192.663C191.906 193.181 196.46 200.962 195.768 201.481C195.076 202.057 193.232 201.884 193.29 201.25C193.347 200.616 189.14 196.466 189.14 196.466L185.855 195.717L184.875 192.317Z" fill="white"/>
<mask id="mask18_4495_31366" style="mask-type:luminance" maskUnits="userSpaceOnUse" x="184" y="192" width="12" height="10">
<path d="M184.873 192.317C184.873 192.317 189.945 192.144 190.925 192.663C191.904 193.181 196.458 200.962 195.766 201.481C195.074 202.057 193.23 201.884 193.288 201.25C193.345 200.616 189.138 196.466 189.138 196.466L185.853 195.717L184.873 192.317Z" fill="white"/>
</mask>
<g mask="url(#mask18_4495_31366)">
<path d="M184.873 192.317C184.873 192.317 189.945 192.144 190.925 192.663C191.904 193.181 196.458 200.962 195.766 201.481C195.074 202.057 193.23 201.884 193.288 201.25C193.345 200.616 189.138 196.466 189.138 196.466L185.853 195.717L184.873 192.317Z" fill="#455A64"/>
</g>
<mask id="mask19_4495_31366" style="mask-type:luminance" maskUnits="userSpaceOnUse" x="184" y="192" width="12" height="10">
<path d="M184.873 192.317C184.873 192.317 189.945 192.144 190.925 192.663C191.904 193.181 196.458 200.962 195.766 201.481C195.074 202.057 193.23 201.884 193.288 201.25C193.345 200.616 189.138 196.466 189.138 196.466L185.853 195.717L184.873 192.317Z" fill="white"/>
</mask>
<g mask="url(#mask19_4495_31366)">
<path d="M184.873 192.317C184.873 192.317 189.945 192.144 190.925 192.663C191.904 193.181 196.458 200.962 195.766 201.481C195.074 202.057 193.23 201.884 193.288 201.25C193.345 200.616 189.138 196.466 189.138 196.466L185.853 195.717L184.873 192.317Z" fill="#FFBE9D"/>
</g>
<path d="M184.875 192.317C184.875 192.317 189.947 192.144 190.927 192.663C191.906 193.181 196.46 200.962 195.768 201.481C195.076 202.057 193.232 201.884 193.29 201.25C193.347 200.616 189.14 196.466 189.14 196.466L185.855 195.717L184.875 192.317Z" stroke="#263238" stroke-width="0.408015" stroke-miterlimit="10" stroke-linecap="round" stroke-linejoin="round"/>
<path d="M181.762 191.278C181.762 191.278 186.891 191.105 187.871 191.623C188.908 192.142 193.462 199.98 192.77 200.557C192.078 201.133 190.176 200.96 190.234 200.326C190.292 199.692 186.027 195.485 186.027 195.485L182.684 194.736L181.762 191.278Z" fill="white"/>
<mask id="mask20_4495_31366" style="mask-type:luminance" maskUnits="userSpaceOnUse" x="181" y="191" width="12" height="10">
<path d="M181.762 191.278C181.762 191.278 186.891 191.105 187.871 191.623C188.908 192.142 193.462 199.98 192.77 200.557C192.078 201.133 190.176 200.96 190.234 200.326C190.292 199.692 186.027 195.485 186.027 195.485L182.684 194.736L181.762 191.278Z" fill="white"/>
</mask>
<g mask="url(#mask20_4495_31366)">
<path d="M181.762 191.278C181.762 191.278 186.891 191.105 187.871 191.623C188.908 192.142 193.462 199.98 192.77 200.557C192.078 201.133 190.176 200.96 190.234 200.326C190.292 199.692 186.027 195.485 186.027 195.485L182.684 194.736L181.762 191.278Z" fill="#455A64"/>
</g>
<mask id="mask21_4495_31366" style="mask-type:luminance" maskUnits="userSpaceOnUse" x="181" y="191" width="12" height="10">
<path d="M181.762 191.278C181.762 191.278 186.891 191.105 187.871 191.623C188.908 192.142 193.462 199.98 192.77 200.557C192.078 201.133 190.176 200.96 190.234 200.326C190.292 199.692 186.027 195.485 186.027 195.485L182.684 194.736L181.762 191.278Z" fill="white"/>
</mask>
<g mask="url(#mask21_4495_31366)">
<path d="M181.762 191.278C181.762 191.278 186.891 191.105 187.871 191.623C188.908 192.142 193.462 199.98 192.77 200.557C192.078 201.133 190.176 200.96 190.234 200.326C190.292 199.692 186.027 195.485 186.027 195.485L182.684 194.736L181.762 191.278Z" fill="#FFBE9D"/>
</g>
<path d="M181.762 191.278C181.762 191.278 186.891 191.105 187.871 191.623C188.908 192.142 193.462 199.98 192.77 200.557C192.078 201.133 190.176 200.96 190.234 200.326C190.292 199.692 186.027 195.485 186.027 195.485L182.684 194.736L181.762 191.278Z" stroke="#263238" stroke-width="0.408015" stroke-miterlimit="10" stroke-linecap="round" stroke-linejoin="round"/>
<path d="M123.611 161.941C127.3 167.647 134.735 182.056 136.925 183.727C140.325 186.263 162.918 192.43 165.108 194.101C167.298 195.773 167.125 197.502 169.2 198.078C171.275 198.712 178.998 200.441 181.937 200.729C184.876 201.017 183.551 199.173 183.551 199.173L178.537 195.715L182.917 194.62C182.917 194.62 187.297 199.922 188.162 200.21C188.969 200.499 190.467 200.21 190.352 199.576C190.179 198.539 185.51 190.009 183.839 189.606C182.168 189.26 172.082 190.643 172.082 190.643C172.082 190.643 150.872 176.35 150.526 175.831C150.526 175.831 149.258 172.258 148.221 170.759C147.184 169.261 146.55 169.722 146.55 169.722C146.55 169.722 146.953 167.82 146.319 167.186C145.685 166.552 142.919 163.785 142.919 163.785L142.803 163.958C142.227 162.806 141.651 161.48 141.017 159.982C139.23 155.832 133.006 144.132 131.91 142.403C131.104 141.135 124.476 140.213 121.133 139.867" fill="#455A64"/>
<mask id="mask22_4495_31366" style="mask-type:luminance" maskUnits="userSpaceOnUse" x="121" y="139" width="70" height="62">
<path d="M123.611 161.941C127.3 167.647 134.735 182.056 136.925 183.727C140.325 186.263 162.918 192.43 165.108 194.101C167.298 195.773 167.125 197.502 169.2 198.078C171.275 198.712 178.998 200.441 181.937 200.729C184.876 201.017 183.551 199.173 183.551 199.173L178.537 195.715L182.917 194.62C182.917 194.62 187.297 199.922 188.162 200.21C188.969 200.499 190.467 200.21 190.352 199.576C190.179 198.539 185.51 190.009 183.839 189.606C182.168 189.26 172.082 190.643 172.082 190.643C172.082 190.643 150.872 176.35 150.526 175.831C150.526 175.831 149.258 172.258 148.221 170.759C147.184 169.261 146.55 169.722 146.55 169.722C146.55 169.722 146.953 167.82 146.319 167.186C145.685 166.552 142.919 163.785 142.919 163.785L142.803 163.958C142.227 162.806 141.651 161.48 141.017 159.982C139.23 155.832 133.006 144.132 131.91 142.403C131.104 141.135 124.476 140.213 121.133 139.867" fill="white"/>
</mask>
<g mask="url(#mask22_4495_31366)">
<path opacity="0.16" d="M138.366 162.346C141.132 164.824 140.21 164.824 139.576 166.956C138.942 169.089 140.037 166.207 142.63 166.322C145.224 166.495 144.475 169.838 144.187 170.472C143.898 171.106 147.414 171.855 146.78 173.238C146.146 174.622 142.63 176.639 140.613 178.598C138.596 180.616 145.858 175.371 148.279 175.198C149.028 175.14 149.662 175.256 150.181 175.256C149.777 174.161 148.855 171.913 148.106 170.818C147.068 169.319 146.434 169.78 146.434 169.78C146.434 169.78 146.838 167.878 146.204 167.245C145.57 166.611 142.803 163.844 142.803 163.844L142.688 164.017C142.112 162.864 141.535 161.539 140.901 160.04C139.115 155.891 132.89 144.191 131.795 142.462C130.988 141.194 124.36 140.272 121.018 139.926L121.306 142.577L121.363 142.635C121.363 142.635 125.513 143.384 126.896 143.557C128.28 143.73 129.951 144.94 129.836 145.862C129.663 146.784 125.686 150.934 126.896 151.222C128.107 151.51 129.49 148.168 130.873 148.629C132.372 149.147 135.599 159.867 138.366 162.346Z" fill="#1E1E1E"/>
</g>
<path d="M123.611 161.941C127.3 167.647 134.735 182.056 136.925 183.727C140.325 186.263 162.918 192.43 165.108 194.101C167.298 195.773 167.125 197.502 169.2 198.078C171.275 198.712 178.998 200.441 181.937 200.729C184.876 201.017 183.551 199.173 183.551 199.173L178.537 195.715L182.917 194.62C182.917 194.62 187.297 199.922 188.162 200.21C188.969 200.499 190.467 200.21 190.352 199.576C190.179 198.539 185.51 190.009 183.839 189.606C182.168 189.26 172.082 190.643 172.082 190.643C172.082 190.643 150.872 176.35 150.526 175.831C150.526 175.831 149.258 172.258 148.221 170.759C147.184 169.261 146.55 169.722 146.55 169.722C146.55 169.722 146.953 167.82 146.319 167.186C145.685 166.552 142.919 163.785 142.919 163.785L142.803 163.958C142.227 162.806 141.651 161.48 141.017 159.982C139.23 155.832 133.006 144.132 131.91 142.403C131.104 141.135 124.476 140.213 121.133 139.867" stroke="#263238" stroke-width="0.816031" stroke-miterlimit="10" stroke-linecap="round" stroke-linejoin="round"/>
<path d="M123.667 154.105C123.494 154.624 123.379 155.143 123.264 155.662" stroke="#263238" stroke-width="0.816031" stroke-miterlimit="10" stroke-linecap="round" stroke-linejoin="round"/>
<path d="M129.317 144.594C129.317 144.594 126.608 147.533 124.764 151.452" stroke="#263238" stroke-width="0.816031" stroke-miterlimit="10" stroke-linecap="round" stroke-linejoin="round"/>
<path d="M137.787 177.329C139.343 175.024 141.822 172.084 144.53 171.277" stroke="#263238" stroke-width="0.816031" stroke-miterlimit="10" stroke-linecap="round" stroke-linejoin="round"/>
<path d="M136.059 180.153C136.059 180.153 136.347 179.634 136.808 178.77" stroke="#263238" stroke-width="0.816031" stroke-miterlimit="10" stroke-linecap="round" stroke-linejoin="round"/>
<path d="M136.059 176.525C136.059 176.525 138.883 169.436 141.707 167.649C144.531 165.805 142.917 169.494 142.917 169.494" stroke="#263238" stroke-width="0.816031" stroke-miterlimit="10" stroke-linecap="round" stroke-linejoin="round"/>
<path d="M165.107 194.104C167.297 195.775 167.124 197.505 169.199 198.081C171.274 198.715 178.997 200.444 181.936 200.732C184.876 201.02 183.55 199.176 183.55 199.176L178.536 195.718L182.916 194.623C182.916 194.623 187.296 199.925 188.161 200.213C188.968 200.501 190.524 200.617 190.351 199.579C189.948 197.562 185.51 190.012 183.838 189.609C182.167 189.263 172.081 190.646 172.081 190.646C172.081 190.646 152.773 177.39 150.641 175.949C142.457 176.756 138.538 181.021 136.924 183.615L136.981 183.672C140.324 186.266 162.917 192.433 165.107 194.104Z" fill="#FFBE9D"/>
<path d="M165.107 194.104C167.297 195.775 167.124 197.505 169.199 198.081C171.274 198.715 178.997 200.444 181.936 200.732C184.876 201.02 183.55 199.176 183.55 199.176L178.536 195.718L182.916 194.623C182.916 194.623 187.296 199.925 188.161 200.213C188.968 200.501 190.524 200.617 190.351 199.579C189.948 197.562 185.51 190.012 183.838 189.609C182.167 189.263 172.081 190.646 172.081 190.646C172.081 190.646 152.773 177.39 150.641 175.949C142.457 176.756 138.538 181.021 136.924 183.615L136.981 183.672C140.324 186.266 162.917 192.433 165.107 194.104Z" stroke="#263238" stroke-width="0.408015" stroke-miterlimit="10"/>
<path d="M114.157 93.4727L96.8088 100.735C96.8088 100.735 96.6359 105.23 94.5611 109.553C92.4863 113.875 93.6966 122.117 95.6562 126.555C97.6157 130.993 106.319 129.264 109.488 128.687C112.658 128.111 115.771 126.843 115.771 126.843C115.771 126.843 118.595 128.111 121.419 126.036C121.476 126.036 112.14 99.9853 114.157 93.4727Z" fill="#FFBE9D"/>
<mask id="mask23_4495_31366" style="mask-type:luminance" maskUnits="userSpaceOnUse" x="93" y="93" width="29" height="37">
<path d="M114.157 93.4727L96.8086 100.735C96.8086 100.735 96.6357 105.23 94.5608 109.553C92.486 113.875 93.6963 122.117 95.6559 126.555C97.6155 130.993 106.318 129.264 109.488 128.687C112.658 128.111 115.77 126.843 115.77 126.843C115.77 126.843 118.594 128.111 121.418 126.036C121.476 126.036 112.139 99.9853 114.157 93.4727Z" fill="white"/>
</mask>
<g mask="url(#mask23_4495_31366)">
<path d="M114.157 93.4727L96.8088 100.735C96.8088 100.735 96.6359 105.23 94.5611 109.553C92.4863 113.875 93.6966 122.117 95.6562 126.555C96.002 127.304 96.5207 127.88 97.2123 128.284V127.938C97.2123 127.938 93.9848 119.927 94.6187 115.374C95.2527 110.763 97.8463 108.458 98.1344 105.576C98.4226 102.637 98.3073 101.253 104.128 99.1208C109.949 96.9884 112.428 94.9712 113.004 97.1036C113.638 99.2361 116.059 113.357 117.788 116.757C119.459 120.157 119.344 123.673 116.693 125.172C114.618 126.382 111.39 128.053 108.278 128.86C108.739 128.803 109.143 128.687 109.488 128.63C112.658 128.053 115.771 126.785 115.771 126.785C115.771 126.785 118.595 128.053 121.419 125.978C121.476 126.036 112.14 99.9853 114.157 93.4727Z" fill="#F4A658"/>
</g>
<path d="M114.157 93.4727L96.8088 100.735C96.8088 100.735 96.6359 105.23 94.5611 109.553C92.4863 113.875 93.6966 122.117 95.6562 126.555C97.6157 130.993 106.319 129.264 109.488 128.687C112.658 128.111 115.771 126.843 115.771 126.843C115.771 126.843 118.595 128.111 121.419 126.036C121.476 126.036 112.14 99.9853 114.157 93.4727Z" stroke="#263238" stroke-width="0.408015" stroke-miterlimit="10"/>
<path d="M105.396 104.828C105.396 104.828 105.511 106.672 105.05 107.825C104.589 108.978 100.209 113.531 100.382 113.992C100.497 114.453 100.901 116.067 101.65 116.182" stroke="#263238" stroke-width="0.816031" stroke-miterlimit="10" stroke-linecap="round" stroke-linejoin="round"/>
<path d="M110.238 108.86C110.872 107.65 112.832 108.86 112.832 111.569" stroke="#263238" stroke-width="0.816031" stroke-miterlimit="10" stroke-linecap="round" stroke-linejoin="round"/>
<path d="M100.385 105.346C100.385 105.346 102.056 104.597 103.612 107.364" stroke="#263238" stroke-width="0.816031" stroke-miterlimit="10" stroke-linecap="round" stroke-linejoin="round"/>
<path d="M107.818 112.895C107.818 112.895 110.7 112.895 113.063 115.085" stroke="#263238" stroke-width="0.408015" stroke-miterlimit="10" stroke-linecap="round" stroke-linejoin="round"/>
<path d="M98.3088 109.266C98.3088 109.266 100.211 109.554 101.248 110.073" stroke="#263238" stroke-width="0.408015" stroke-miterlimit="10" stroke-linecap="round" stroke-linejoin="round"/>
<path d="M105.224 102.29C105.224 102.29 103.84 101.483 102.284 102.232C100.728 102.981 99.806 103.788 99.8636 102.866C99.9789 101.886 101.766 100.849 102.342 100.734C102.918 100.561 105.339 100.157 105.224 102.29Z" fill="#263238"/>
<path d="M109.547 100.099C109.547 100.099 112.14 102.117 113.293 104.998C114.446 107.88 115.368 104.71 114.446 102.866C113.523 100.964 110.93 98.9466 109.547 100.099Z" fill="#263238"/>
<path d="M121.708 130.991C121.708 132.316 120.959 133.411 120.037 133.411C119.114 133.411 118.365 132.316 118.365 130.991C118.365 129.665 119.114 126.207 120.037 126.207C120.959 126.207 121.708 129.607 121.708 130.991Z" fill="#455A64" stroke="#263238" stroke-width="0.816031" stroke-miterlimit="10" stroke-linecap="round" stroke-linejoin="round"/>
<path d="M110.355 108.344C110.297 108.517 110.239 108.69 110.182 108.862C110.009 109.727 109.836 111.514 110.239 111.571C110.585 111.629 111.392 109.958 111.507 109.151C111.565 108.978 111.565 108.805 111.565 108.632C111.161 108.517 110.758 108.401 110.355 108.344Z" fill="#263238"/>
<path d="M100.555 105.171C100.497 105.286 100.44 105.459 100.44 105.632C100.267 106.497 100.267 108.341 100.613 108.456C100.958 108.514 101.592 106.785 101.708 105.92C101.765 105.69 101.765 105.459 101.765 105.286C101.362 105.114 100.901 105.114 100.555 105.171Z" fill="#263238"/>
<path d="M110.238 108.919L110.815 107.824C110.815 107.824 112.313 108.055 113.178 109.207" stroke="#263238" stroke-width="0.612023" stroke-miterlimit="10" stroke-linecap="round" stroke-linejoin="round"/>
<path d="M100.557 105.172L101.133 104.481C101.133 104.481 101.364 104.366 102.747 105" stroke="#263238" stroke-width="0.612023" stroke-miterlimit="10" stroke-linecap="round" stroke-linejoin="round"/>
<path d="M98.3652 120.791C98.3652 120.791 99.345 119.004 100.613 119.004C101.881 119.004 102.861 121.943 102.861 121.943" stroke="#263238" stroke-width="0.816031" stroke-miterlimit="10" stroke-linecap="round" stroke-linejoin="round"/>
<path d="M59.8509 197.344C58.4101 197.344 56.7963 196.71 56.22 196.48C55.586 196.191 55.2978 195.442 55.586 194.808C55.8741 194.174 56.6234 193.886 57.2574 194.174C58.4101 194.693 59.9086 194.981 60.312 194.808C61.0612 194.001 62.1563 189.045 60.7154 186.682C60.3696 186.163 60.0815 186.048 59.9086 186.048C59.1017 185.933 57.8337 186.797 57.4303 187.201C56.9116 187.662 56.1047 187.662 55.6436 187.143C55.1825 186.624 55.1825 185.817 55.7012 185.356C55.9318 185.126 58.0066 183.281 60.2544 183.57C61.0036 183.685 62.0987 184.088 62.9055 185.414C65.038 188.872 63.5972 195.558 61.9258 196.825C61.2918 197.171 60.6002 197.344 59.8509 197.344Z" fill="white"/>
<mask id="mask24_4495_31366" style="mask-type:luminance" maskUnits="userSpaceOnUse" x="55" y="183" width="9" height="15">
<path d="M59.8529 197.344C58.412 197.344 56.7983 196.71 56.2219 196.48C55.5879 196.191 55.2998 195.442 55.5879 194.808C55.8761 194.174 56.6253 193.886 57.2593 194.174C58.412 194.693 59.9105 194.981 60.314 194.808C61.0632 194.001 62.1583 189.045 60.7174 186.682C60.3716 186.163 60.0834 186.048 59.9105 186.048C59.1036 185.933 57.8357 186.797 57.4322 187.201C56.9135 187.662 56.1066 187.662 55.6456 187.143C55.1845 186.624 55.1845 185.817 55.7032 185.356C55.9337 185.126 58.0086 183.281 60.2563 183.57C61.0056 183.685 62.1006 184.088 62.9075 185.414C65.04 188.872 63.5991 195.558 61.9277 196.825C61.2937 197.171 60.6021 197.344 59.8529 197.344Z" fill="white"/>
</mask>
<g mask="url(#mask24_4495_31366)">
<path d="M61.5236 186.279C61.0049 185.242 60.3132 184.954 59.7945 184.896C58.3537 184.665 57.0281 186.106 56.8552 186.279C56.567 186.625 56.5094 187.086 56.7399 187.49C56.9704 187.432 57.1434 187.317 57.3739 187.201C57.835 186.798 59.0453 185.933 59.8522 186.049C60.0827 186.049 60.3709 186.164 60.6591 186.683C62.0999 189.046 61.0049 194.002 60.2556 194.809C59.8522 194.982 58.3537 194.694 57.201 194.175C57.0281 194.118 56.9128 194.06 56.7399 194.06C56.7975 194.406 56.9704 194.694 57.201 194.809C57.6044 194.982 58.6418 195.501 59.564 195.501C60.0251 195.501 60.4861 195.385 60.832 195.04C61.9846 194.06 62.9068 188.93 61.5236 186.279Z" fill="#FFAA00"/>
</g>
<mask id="mask25_4495_31366" style="mask-type:luminance" maskUnits="userSpaceOnUse" x="55" y="183" width="9" height="15">
<path d="M59.8529 197.344C58.412 197.344 56.7983 196.71 56.2219 196.48C55.5879 196.191 55.2998 195.442 55.5879 194.808C55.8761 194.174 56.6253 193.886 57.2593 194.174C58.412 194.693 59.9105 194.981 60.314 194.808C61.0632 194.001 62.1583 189.045 60.7174 186.682C60.3716 186.163 60.0834 186.048 59.9105 186.048C59.1036 185.933 57.8357 186.797 57.4322 187.201C56.9135 187.662 56.1066 187.662 55.6456 187.143C55.1845 186.624 55.1845 185.817 55.7032 185.356C55.9337 185.126 58.0086 183.281 60.2563 183.57C61.0056 183.685 62.1006 184.088 62.9075 185.414C65.04 188.872 63.5991 195.558 61.9277 196.825C61.2937 197.171 60.6021 197.344 59.8529 197.344Z" fill="white"/>
</mask>
<g mask="url(#mask25_4495_31366)">
<path opacity="0.5" d="M61.5236 186.279C61.0049 185.242 60.3132 184.954 59.7945 184.896C58.3537 184.665 57.0281 186.106 56.8552 186.279C56.567 186.625 56.5094 187.086 56.7399 187.49C56.9704 187.432 57.1434 187.317 57.3739 187.201C57.835 186.798 59.0453 185.933 59.8522 186.049C60.0827 186.049 60.3709 186.164 60.6591 186.683C62.0999 189.046 61.0049 194.002 60.2556 194.809C59.8522 194.982 58.3537 194.694 57.201 194.175C57.0281 194.118 56.9128 194.06 56.7399 194.06C56.7975 194.406 56.9704 194.694 57.201 194.809C57.6044 194.982 58.6418 195.501 59.564 195.501C60.0251 195.501 60.4861 195.385 60.832 195.04C61.9846 194.06 62.9068 188.93 61.5236 186.279Z" fill="white"/>
</g>
<path d="M59.8509 197.344C58.4101 197.344 56.7963 196.71 56.22 196.48C55.586 196.191 55.2978 195.442 55.586 194.808C55.8741 194.174 56.6234 193.886 57.2574 194.174C58.4101 194.693 59.9086 194.981 60.312 194.808C61.0612 194.001 62.1563 189.045 60.7154 186.682C60.3696 186.163 60.0815 186.048 59.9086 186.048C59.1017 185.933 57.8337 186.797 57.4303 187.201C56.9116 187.662 56.1047 187.662 55.6436 187.143C55.1825 186.624 55.1825 185.817 55.7012 185.356C55.9318 185.126 58.0066 183.281 60.2544 183.57C61.0036 183.685 62.0987 184.088 62.9055 185.414C65.038 188.872 63.5972 195.558 61.9258 196.825C61.2918 197.171 60.6002 197.344 59.8509 197.344Z" stroke="#263238" stroke-width="0.816031" stroke-miterlimit="10" stroke-linecap="round" stroke-linejoin="round"/>
<path d="M57.6594 182.473H43.7695V200.858H57.6594V182.473Z" fill="white"/>
<mask id="mask26_4495_31366" style="mask-type:luminance" maskUnits="userSpaceOnUse" x="43" y="182" width="15" height="19">
<path d="M57.6575 182.473H43.7676V200.858H57.6575V182.473Z" fill="white"/>
</mask>
<g mask="url(#mask26_4495_31366)">
<path d="M49.4734 182.473H43.7676V200.858H49.4734V182.473Z" fill="#FF9635"/>
</g>
<mask id="mask27_4495_31366" style="mask-type:luminance" maskUnits="userSpaceOnUse" x="43" y="182" width="15" height="19">
<path d="M57.6575 182.473H43.7676V200.858H57.6575V182.473Z" fill="white"/>
</mask>
<g mask="url(#mask27_4495_31366)">
<path opacity="0.5" d="M49.4734 182.473H43.7676V200.858H49.4734V182.473Z" fill="white"/>
</g>
<path d="M57.6594 182.473H43.7695V200.858H57.6594V182.473Z" stroke="#263238" stroke-width="0.816031" stroke-miterlimit="10" stroke-linecap="round" stroke-linejoin="round"/>
<path d="M133.796 200.626H74.605L72.6454 168.062C72.4149 166.737 73.4523 165.469 74.8356 165.469H133.565C134.948 165.469 135.986 166.679 135.755 168.062L133.796 200.626Z" fill="#263238" stroke="#263238" stroke-width="0.816031" stroke-miterlimit="10" stroke-linecap="round" stroke-linejoin="round"/>
<path d="M77.4844 166.273H133.102C134.427 166.273 135.465 167.484 135.234 168.752" stroke="white" stroke-width="0.816031" stroke-miterlimit="10" stroke-linecap="round" stroke-linejoin="round"/>
<path d="M73.1055 168.233C73.1631 167.138 74.0853 166.273 75.2956 166.273" stroke="white" stroke-width="0.816031" stroke-miterlimit="10" stroke-linecap="round" stroke-linejoin="round"/>
<path d="M134.026 197.457H74.3164V200.627H134.026V197.457Z" fill="white" stroke="#263238" stroke-width="0.816031" stroke-miterlimit="10" stroke-linecap="round" stroke-linejoin="round"/>
<path d="M103.998 185.697C106.322 185.697 108.206 184.561 108.206 183.161C108.206 181.76 106.322 180.625 103.998 180.625C101.675 180.625 99.791 181.76 99.791 183.161C99.791 184.561 101.675 185.697 103.998 185.697Z" fill="white" stroke="#263238" stroke-width="0.816031" stroke-miterlimit="10" stroke-linecap="round" stroke-linejoin="round"/>
<path d="M224.107 200.223H1.69531V205.64H224.107V200.223Z" fill="#263238"/>
<path d="M166.473 74.4637H59.446C55.8151 74.4637 52.9333 71.5243 52.9333 67.951V6.51269C52.9333 2.93936 55.8727 0 59.446 0H166.416C170.047 0 172.928 2.93936 172.928 6.51269V67.8934C172.986 71.5243 170.047 74.4637 166.473 74.4637Z" fill="#FF9E5B"/>
<path d="M115.759 42.8238C125.47 41.2629 132.076 32.1254 130.515 22.4147C128.955 12.7039 119.817 6.09716 110.106 7.65808C100.396 9.219 93.7888 18.3565 95.3497 28.0672C96.9107 37.778 106.048 44.3847 115.759 42.8238Z" fill="#263238"/>
<path d="M119.156 22.4209C119.098 22.4209 117.945 22.4209 117.888 22.4209H117.83C117.83 22.1327 117.888 20.7495 117.83 20.2884C117.657 18.0406 115.698 16.1963 113.392 16.0234C113.219 16.0234 113.104 16.0234 112.989 16.0234C111.721 16.0234 110.626 16.4269 109.704 17.2338C108.781 18.0406 108.205 19.1933 108.09 20.346C108.09 20.7495 108.09 22.1903 108.09 22.4785H106.822C106.591 22.4785 106.361 22.6514 106.361 22.8819V32.968C106.361 33.1985 106.534 33.3714 106.822 33.3714H119.098C119.329 33.3714 119.559 33.1985 119.559 32.968V22.8819C119.559 22.6514 119.386 22.4785 119.156 22.4209ZM114.545 31.4118H111.433L111.894 27.5503C111.433 27.2045 111.144 26.6858 111.144 26.1095C111.144 25.1297 111.951 24.3228 112.989 24.3228C114.026 24.3228 114.833 25.1297 114.833 26.1095C114.833 26.6858 114.545 27.2045 114.084 27.5503L114.545 31.4118ZM115.755 22.4209L110.107 22.4785C110.107 22.4209 110.107 22.3632 110.107 22.248C110.107 21.0376 110.049 20.1155 110.511 19.4239C111.029 18.5594 111.836 18.0983 112.816 18.0406C112.874 18.0406 112.874 18.0406 112.931 18.0406C113.911 18.0406 114.775 18.5017 115.294 19.3662C115.813 20.1155 115.813 21.0953 115.755 22.4209Z" fill="white"/>
<path d="M146.878 61.5539H79.0423C76.1606 61.5539 73.8552 59.2485 73.8552 56.3668C73.8552 53.4851 76.1606 51.1797 79.0423 51.1797H146.878C149.76 51.1797 152.065 53.4851 152.065 56.3668C152.065 59.2485 149.76 61.5539 146.878 61.5539Z" fill="white"/>
<path d="M88.3214 58.0381C88.2061 58.0381 88.1485 57.9805 88.0909 57.9228C88.0332 57.8652 87.9756 57.7499 87.9756 57.6923C87.9756 57.6347 87.9756 57.5194 88.0332 57.4618L88.5519 56.6549L87.5145 56.7125C87.3993 56.7125 87.284 56.6549 87.2264 56.5972C87.1687 56.5396 87.1111 56.4243 87.1111 56.3667C87.1111 56.2514 87.1687 56.1938 87.2264 56.1362C87.284 56.0785 87.3993 56.0209 87.5145 56.0209L88.5519 56.0785L88.0909 55.3293C88.0332 55.214 88.0332 55.1564 88.0332 55.0988C88.0332 54.9835 88.0909 54.9258 88.1485 54.8106C88.2061 54.7529 88.3214 54.6953 88.379 54.6953C88.4943 54.6953 88.6096 54.7529 88.6672 54.8682L89.1859 55.7904L89.647 54.9259C89.7623 54.7529 89.8775 54.6953 89.9928 54.6953C90.1081 54.6953 90.1657 54.7529 90.2233 54.8106C90.281 54.8682 90.3386 54.9835 90.3386 55.0411C90.3386 55.0988 90.3386 55.214 90.281 55.2717L89.7623 56.0785L90.7997 56.0209C90.915 56.0209 91.0302 56.0785 91.0879 56.1362C91.1455 56.1938 91.2031 56.3091 91.2031 56.3667C91.2031 56.482 91.1455 56.5396 91.0879 56.5972C91.0302 56.6549 90.915 56.7125 90.7997 56.7125L89.7046 56.6549L90.1657 57.4041C90.2233 57.5194 90.281 57.577 90.281 57.6923C90.281 57.8076 90.2233 57.8652 90.1657 57.9228C90.1081 57.9805 89.9928 58.0381 89.9352 58.0381C89.8199 58.0381 89.7046 57.9805 89.5894 57.8076L89.1283 56.9431L88.6672 57.8076C88.552 57.9805 88.4367 58.0381 88.3214 58.0381Z" fill="#1E1E1E"/>
<path d="M93.6239 58.0381C93.5086 58.0381 93.451 57.9805 93.3934 57.9228C93.3357 57.8652 93.2781 57.7499 93.2781 57.6923C93.2781 57.6347 93.2781 57.5194 93.3357 57.4618L93.8544 56.6549L92.817 56.7125C92.7017 56.7125 92.5865 56.6549 92.5288 56.5972C92.4712 56.5396 92.4136 56.4243 92.4136 56.3667C92.4136 56.2514 92.4712 56.1938 92.5288 56.1362C92.5865 56.0785 92.7017 56.0209 92.817 56.0209L93.8544 56.0785L93.3934 55.3293C93.3357 55.214 93.3357 55.1564 93.3357 55.0988C93.3357 54.9835 93.3934 54.9258 93.451 54.8106C93.5086 54.7529 93.6239 54.6953 93.6815 54.6953C93.7968 54.6953 93.9121 54.7529 93.9697 54.8682L94.4884 55.7904L94.9495 54.9259C95.0648 54.7529 95.18 54.6953 95.2953 54.6953C95.4106 54.6953 95.4682 54.7529 95.5258 54.8106C95.5835 54.8682 95.6411 54.9835 95.6411 55.0411C95.6411 55.0988 95.6411 55.214 95.5835 55.2717L95.0648 56.0785L96.1022 56.0209C96.2174 56.0209 96.3327 56.0785 96.3903 56.1362C96.448 56.1938 96.5056 56.3091 96.5056 56.3667C96.5056 56.482 96.448 56.5396 96.3903 56.5972C96.3327 56.6549 96.2174 56.7125 96.1022 56.7125L95.0071 56.6549L95.4682 57.4041C95.5258 57.5194 95.5835 57.577 95.5835 57.6923C95.5835 57.8076 95.5258 57.8652 95.4682 57.9228C95.4106 57.9805 95.2953 58.0381 95.2377 58.0381C95.1224 58.0381 95.0071 57.9805 94.8918 57.8076L94.4308 56.9431L93.9697 57.8076C93.8544 57.9805 93.7392 58.0381 93.6239 58.0381Z" fill="#1E1E1E"/>
<path d="M98.9269 58.0381C98.8116 58.0381 98.754 57.9805 98.6963 57.9228C98.6387 57.8652 98.5811 57.7499 98.5811 57.6923C98.5811 57.6347 98.5811 57.5194 98.6387 57.4618L99.1574 56.6549L98.12 56.7125C98.0047 56.7125 97.8895 56.6549 97.8318 56.5972C97.7742 56.5396 97.7166 56.4243 97.7166 56.3667C97.7166 56.2514 97.7742 56.1938 97.8318 56.1362C97.8895 56.0785 98.0047 56.0209 98.12 56.0209L99.1574 56.0785L98.6963 55.3293C98.6387 55.214 98.6387 55.1564 98.6387 55.0988C98.6387 54.9835 98.6963 54.9258 98.754 54.8106C98.8116 54.7529 98.9269 54.6953 98.9845 54.6953C99.0998 54.6953 99.215 54.7529 99.2727 54.8682L99.7914 55.7904L100.252 54.9259C100.368 54.7529 100.483 54.6953 100.598 54.6953C100.714 54.6953 100.771 54.7529 100.829 54.8106C100.886 54.8682 100.944 54.9835 100.944 55.0411C100.944 55.0988 100.944 55.214 100.886 55.2717L100.368 56.0785L101.405 56.0209C101.52 56.0209 101.636 56.0785 101.693 56.1362C101.751 56.1938 101.809 56.3091 101.809 56.3667C101.809 56.482 101.751 56.5396 101.693 56.5972C101.636 56.6549 101.52 56.7125 101.405 56.7125L100.31 56.6549L100.771 57.4041C100.829 57.5194 100.886 57.577 100.886 57.6923C100.886 57.8076 100.829 57.8652 100.771 57.9228C100.714 57.9805 100.598 58.0381 100.541 58.0381C100.425 58.0381 100.31 57.9805 100.195 57.8076L99.7338 56.9431L99.2727 57.8076C99.1574 57.9805 99.0421 58.0381 98.9269 58.0381Z" fill="#1E1E1E"/>
<path d="M104.171 58.0381C104.056 58.0381 103.998 57.9805 103.94 57.9228C103.883 57.8652 103.825 57.7499 103.825 57.6923C103.825 57.6347 103.825 57.5194 103.883 57.4618L104.402 56.6549L103.364 56.7125C103.249 56.7125 103.134 56.6549 103.076 56.5972C103.018 56.5396 102.961 56.4243 102.961 56.3667C102.961 56.2514 103.018 56.1938 103.076 56.1362C103.134 56.0785 103.249 56.0209 103.364 56.0209L104.402 56.0785L103.94 55.3293C103.883 55.214 103.883 55.1564 103.883 55.0988C103.883 54.9835 103.94 54.9258 103.998 54.8106C104.056 54.7529 104.171 54.6953 104.229 54.6953C104.344 54.6953 104.459 54.7529 104.517 54.8682L105.036 55.7904L105.497 54.9259C105.612 54.7529 105.727 54.6953 105.842 54.6953C105.958 54.6953 106.015 54.7529 106.073 54.8106C106.131 54.8682 106.188 54.9835 106.188 55.0411C106.188 55.0988 106.188 55.214 106.131 55.2717L105.612 56.0785L106.649 56.0209C106.765 56.0209 106.88 56.0785 106.937 56.1362C106.995 56.1938 107.053 56.3091 107.053 56.3667C107.053 56.482 106.995 56.5396 106.937 56.5972C106.88 56.6549 106.765 56.7125 106.649 56.7125L105.554 56.6549L106.015 57.4041C106.073 57.5194 106.131 57.577 106.131 57.6923C106.131 57.8076 106.073 57.8652 106.015 57.9228C105.958 57.9805 105.842 58.0381 105.785 58.0381C105.67 58.0381 105.554 57.9805 105.439 57.8076L104.978 56.9431L104.517 57.8076C104.459 57.9805 104.344 58.0381 104.171 58.0381Z" fill="#1E1E1E"/>
<path d="M109.474 58.0381C109.358 58.0381 109.301 57.9805 109.243 57.9228C109.186 57.8652 109.128 57.7499 109.128 57.6923C109.128 57.6347 109.128 57.5194 109.186 57.4618L109.704 56.6549L108.667 56.7125C108.552 56.7125 108.436 56.6549 108.379 56.5972C108.321 56.5396 108.263 56.4243 108.263 56.3667C108.263 56.2514 108.321 56.1938 108.379 56.1362C108.436 56.0785 108.552 56.0209 108.667 56.0209L109.704 56.0785L109.243 55.3293C109.186 55.214 109.186 55.1564 109.186 55.0988C109.186 54.9835 109.243 54.9258 109.301 54.8106C109.358 54.7529 109.474 54.6953 109.531 54.6953C109.647 54.6953 109.762 54.7529 109.82 54.8682L110.338 55.7904L110.799 54.9259C110.915 54.7529 111.03 54.6953 111.145 54.6953C111.26 54.6953 111.318 54.7529 111.376 54.8106C111.433 54.8682 111.491 54.9835 111.491 55.0411C111.491 55.0988 111.491 55.214 111.433 55.2717L110.915 56.0785L111.952 56.0209C112.067 56.0209 112.183 56.0785 112.24 56.1362C112.298 56.1938 112.355 56.3091 112.355 56.3667C112.355 56.482 112.298 56.5396 112.24 56.5972C112.183 56.6549 112.067 56.7125 111.952 56.7125L110.857 56.6549L111.318 57.4041C111.376 57.5194 111.433 57.577 111.433 57.6923C111.433 57.8076 111.376 57.8652 111.318 57.9228C111.26 57.9805 111.145 58.0381 111.088 58.0381C110.972 58.0381 110.857 57.9805 110.742 57.8076L110.281 56.9431L109.82 57.8076C109.762 57.9805 109.647 58.0381 109.474 58.0381Z" fill="#1E1E1E"/>
<path d="M114.775 58.0381C114.659 58.0381 114.602 57.9805 114.544 57.9228C114.486 57.8652 114.429 57.7499 114.429 57.6923C114.429 57.6347 114.429 57.5194 114.486 57.4618L115.005 56.6549L113.968 56.7125C113.852 56.7125 113.737 56.6549 113.679 56.5972C113.622 56.5396 113.564 56.4243 113.564 56.3667C113.564 56.2514 113.622 56.1938 113.679 56.1362C113.737 56.0785 113.852 56.0209 113.968 56.0209L115.005 56.0785L114.544 55.3293C114.486 55.214 114.486 55.1564 114.486 55.0988C114.486 54.9835 114.544 54.9258 114.602 54.8106C114.659 54.7529 114.775 54.6953 114.832 54.6953C114.947 54.6953 115.063 54.7529 115.12 54.8682L115.639 55.7904L116.1 54.9259C116.215 54.7529 116.331 54.6953 116.446 54.6953C116.561 54.6953 116.619 54.7529 116.676 54.8106C116.734 54.8682 116.792 54.9835 116.792 55.0411C116.792 55.0988 116.792 55.214 116.734 55.2717L116.215 56.0785L117.253 56.0209C117.368 56.0209 117.483 56.0785 117.541 56.1362C117.599 56.1938 117.656 56.3091 117.656 56.3667C117.656 56.482 117.599 56.5396 117.541 56.5972C117.483 56.6549 117.368 56.7125 117.253 56.7125L116.158 56.6549L116.619 57.4041C116.676 57.5194 116.734 57.577 116.734 57.6923C116.734 57.8076 116.676 57.8652 116.619 57.9228C116.561 57.9805 116.446 58.0381 116.388 58.0381C116.273 58.0381 116.158 57.9805 116.042 57.8076L115.581 56.9431L115.12 57.8076C115.005 57.9805 114.89 58.0381 114.775 58.0381Z" fill="#1E1E1E"/>
<path d="M120.077 58.0381C119.962 58.0381 119.904 57.9805 119.847 57.9228C119.789 57.8652 119.731 57.7499 119.731 57.6923C119.731 57.6347 119.731 57.5194 119.789 57.4618L120.308 56.6549L119.27 56.7125C119.155 56.7125 119.04 56.6549 118.982 56.5972C118.925 56.5396 118.867 56.4243 118.867 56.3667C118.867 56.2514 118.925 56.1938 118.982 56.1362C119.04 56.0785 119.155 56.0209 119.27 56.0209L120.308 56.0785L119.847 55.3293C119.789 55.214 119.789 55.1564 119.789 55.0988C119.789 54.9835 119.847 54.9258 119.904 54.8106C119.962 54.7529 120.077 54.6953 120.135 54.6953C120.25 54.6953 120.365 54.7529 120.423 54.8682L120.942 55.7904L121.403 54.9259C121.518 54.7529 121.633 54.6953 121.749 54.6953C121.864 54.6953 121.922 54.7529 121.979 54.8106C122.037 54.8682 122.094 54.9835 122.094 55.0411C122.094 55.0988 122.094 55.214 122.037 55.2717L121.518 56.0785L122.556 56.0209C122.671 56.0209 122.786 56.0785 122.844 56.1362C122.901 56.1938 122.959 56.3091 122.959 56.3667C122.959 56.482 122.901 56.5396 122.844 56.5972C122.786 56.6549 122.671 56.7125 122.556 56.7125L121.46 56.6549L121.922 57.4041C121.979 57.5194 122.037 57.577 122.037 57.6923C122.037 57.8076 121.979 57.8652 121.922 57.9228C121.864 57.9805 121.749 58.0381 121.691 58.0381C121.576 58.0381 121.46 57.9805 121.345 57.8076L120.884 56.9431L120.423 57.8076C120.308 57.9805 120.193 58.0381 120.077 58.0381Z" fill="#1E1E1E"/>
<path d="M125.38 58.0381C125.265 58.0381 125.207 57.9805 125.149 57.9228C125.092 57.8652 125.034 57.7499 125.034 57.6923C125.034 57.6347 125.034 57.5194 125.092 57.4618L125.611 56.6549L124.573 56.7125C124.458 56.7125 124.343 56.6549 124.285 56.5972C124.227 56.5396 124.17 56.4243 124.17 56.3667C124.17 56.2514 124.227 56.1938 124.285 56.1362C124.343 56.0785 124.458 56.0209 124.573 56.0209L125.611 56.0785L125.149 55.3293C125.092 55.214 125.092 55.1564 125.092 55.0988C125.092 54.9835 125.149 54.9258 125.207 54.8106C125.265 54.7529 125.38 54.6953 125.438 54.6953C125.553 54.6953 125.668 54.7529 125.726 54.8682L126.245 55.7904L126.706 54.9259C126.821 54.7529 126.936 54.6953 127.051 54.6953C127.167 54.6953 127.224 54.7529 127.282 54.8106C127.34 54.8682 127.397 54.9835 127.397 55.0411C127.397 55.0988 127.397 55.214 127.34 55.2717L126.821 56.0785L127.858 56.0209C127.974 56.0209 128.089 56.0785 128.146 56.1362C128.204 56.1938 128.262 56.3091 128.262 56.3667C128.262 56.482 128.204 56.5396 128.146 56.5972C128.089 56.6549 127.974 56.7125 127.858 56.7125L126.763 56.6549L127.224 57.4041C127.282 57.5194 127.34 57.577 127.34 57.6923C127.34 57.8076 127.282 57.8652 127.224 57.9228C127.167 57.9805 127.051 58.0381 126.994 58.0381C126.879 58.0381 126.763 57.9805 126.648 57.8076L126.187 56.9431L125.726 57.8076C125.611 57.9805 125.495 58.0381 125.38 58.0381Z" fill="#1E1E1E"/>
<path d="M130.624 58.0381C130.509 58.0381 130.451 57.9805 130.394 57.9228C130.336 57.8652 130.279 57.7499 130.279 57.6923C130.279 57.6347 130.279 57.5194 130.336 57.4618L130.855 56.6549L129.818 56.7125C129.702 56.7125 129.587 56.6549 129.529 56.5972C129.472 56.5396 129.414 56.4243 129.414 56.3667C129.414 56.2514 129.472 56.1938 129.529 56.1362C129.587 56.0785 129.702 56.0209 129.818 56.0209L130.855 56.0785L130.394 55.3293C130.336 55.214 130.336 55.1564 130.336 55.0988C130.336 54.9835 130.394 54.9258 130.451 54.8106C130.509 54.7529 130.624 54.6953 130.682 54.6953C130.797 54.6953 130.913 54.7529 130.97 54.8682L131.489 55.7904L131.95 54.9259C132.065 54.7529 132.181 54.6953 132.296 54.6953C132.411 54.6953 132.469 54.7529 132.526 54.8106C132.584 54.8682 132.642 54.9835 132.642 55.0411C132.642 55.0988 132.642 55.214 132.584 55.2717L132.065 56.0785L133.103 56.0209C133.218 56.0209 133.333 56.0785 133.391 56.1362C133.448 56.1938 133.506 56.3091 133.506 56.3667C133.506 56.482 133.448 56.5396 133.391 56.5972C133.333 56.6549 133.218 56.7125 133.103 56.7125L132.008 56.6549L132.469 57.4041C132.526 57.5194 132.584 57.577 132.584 57.6923C132.584 57.8076 132.526 57.8652 132.469 57.9228C132.411 57.9805 132.296 58.0381 132.238 58.0381C132.123 58.0381 132.008 57.9805 131.892 57.8076L131.431 56.9431L130.97 57.8076C130.913 57.9805 130.797 58.0381 130.624 58.0381Z" fill="#1E1E1E"/>
<path d="M135.927 58.0381C135.812 58.0381 135.754 57.9805 135.696 57.9228C135.639 57.8652 135.581 57.7499 135.581 57.6923C135.581 57.6347 135.581 57.5194 135.639 57.4618L136.157 56.6549L135.12 56.7125C135.005 56.7125 134.889 56.6549 134.832 56.5972C134.774 56.5396 134.717 56.4243 134.717 56.3667C134.717 56.2514 134.774 56.1938 134.832 56.1362C134.889 56.0785 135.005 56.0209 135.12 56.0209L136.157 56.0785L135.696 55.3293C135.639 55.214 135.639 55.1564 135.639 55.0988C135.639 54.9835 135.696 54.9258 135.754 54.8106C135.812 54.7529 135.927 54.6953 135.985 54.6953C136.1 54.6953 136.215 54.7529 136.273 54.8682L136.791 55.7904L137.252 54.9259C137.368 54.7529 137.483 54.6953 137.598 54.6953C137.714 54.6953 137.771 54.7529 137.829 54.8106C137.886 54.8682 137.944 54.9835 137.944 55.0411C137.944 55.0988 137.944 55.214 137.886 55.2717L137.368 56.0785L138.405 56.0209C138.52 56.0209 138.636 56.0785 138.693 56.1362C138.751 56.1938 138.809 56.3091 138.809 56.3667C138.809 56.482 138.751 56.5396 138.693 56.5972C138.636 56.6549 138.52 56.7125 138.405 56.7125L137.31 56.6549L137.771 57.4041C137.829 57.5194 137.886 57.577 137.886 57.6923C137.886 57.8076 137.829 57.8652 137.771 57.9228C137.714 57.9805 137.598 58.0381 137.541 58.0381C137.425 58.0381 137.31 57.9805 137.195 57.8076L136.734 56.9431L136.273 57.8076C136.215 57.9805 136.1 58.0381 135.927 58.0381Z" fill="#1E1E1E"/>
<path d="M154.023 70.7734H161.112" stroke="white" stroke-width="2.44809" stroke-miterlimit="10" stroke-linecap="round" stroke-linejoin="round"/>
<path d="M56.2754 18.9023V65.7015C56.2754 68.5256 58.5808 70.831 61.4049 70.831H147.395" stroke="white" stroke-width="2.44809" stroke-miterlimit="10" stroke-linecap="round" stroke-linejoin="round"/>
<path d="M56.2754 6.45312V13.4845" stroke="white" stroke-width="2.44809" stroke-miterlimit="10" stroke-linecap="round" stroke-linejoin="round"/>
</svg>
