<svg width="296" height="216" viewBox="0 0 296 216" fill="none" xmlns="http://www.w3.org/2000/svg">
<g filter="url(#filter0_d_4495_31354)">
<g filter="url(#filter1_d_4495_31354)">
<path d="M113.377 26.0443H182.71V34.7109H113.377V26.0443ZM122.043 8.71094H174.043V17.3776H122.043V8.71094ZM182.667 43.3343H113.333C111.035 43.3343 108.83 44.2474 107.205 45.8727C105.58 47.498 104.667 49.7024 104.667 52.0009V86.6676C104.667 88.9661 105.58 91.1705 107.205 92.7959C108.83 94.4212 111.035 95.3343 113.333 95.3343H182.667C184.965 95.3343 187.169 94.4212 188.795 92.7959C190.42 91.1705 191.333 88.9661 191.333 86.6676V52.0009C191.333 49.7024 190.42 47.498 188.795 45.8727C187.169 44.2474 184.965 43.3343 182.667 43.3343Z" fill="#FEF3EB"/>
<path d="M133.064 72.7869L141.521 81.0899C142.097 81.6558 143.021 81.6537 143.595 81.085L162.946 61.9071C163.528 61.3311 163.53 60.3923 162.951 59.8137L160.565 57.4271C159.988 56.8504 159.053 56.8504 158.476 57.4271L142.56 73.3426L137.525 68.307C136.948 67.7303 136.013 67.7303 135.436 68.307L133.054 70.6887C132.474 71.2692 132.478 72.2117 133.064 72.7869Z" fill="#FF9E5B"/>
</g>
</g>
<path d="M77.5508 134.939L73.498 147H70.6562L75.9688 132.781H77.7852L77.5508 134.939ZM80.9395 147L76.8672 134.939L76.623 132.781H78.4492L83.791 147H80.9395ZM80.7539 141.717V143.836H73.127V141.717H80.7539ZM89.3965 145.164C89.7611 145.164 90.0866 145.092 90.373 144.949C90.6595 144.806 90.8874 144.604 91.0566 144.344C91.2324 144.083 91.3268 143.781 91.3398 143.436H93.7715C93.7585 144.152 93.5566 144.793 93.166 145.359C92.7754 145.926 92.2546 146.375 91.6035 146.707C90.959 147.033 90.2363 147.195 89.4355 147.195C88.6217 147.195 87.9121 147.059 87.3066 146.785C86.7012 146.512 86.1966 146.131 85.793 145.643C85.3958 145.154 85.0964 144.588 84.8945 143.943C84.6992 143.299 84.6016 142.609 84.6016 141.873V141.561C84.6016 140.825 84.6992 140.135 84.8945 139.49C85.0964 138.846 85.3958 138.279 85.793 137.791C86.1966 137.303 86.7012 136.922 87.3066 136.648C87.9121 136.375 88.6185 136.238 89.4258 136.238C90.2786 136.238 91.0273 136.404 91.6719 136.736C92.3229 137.068 92.8307 137.537 93.1953 138.143C93.5664 138.748 93.7585 139.461 93.7715 140.281H91.3398C91.3268 139.904 91.2422 139.565 91.0859 139.266C90.9297 138.966 90.7083 138.725 90.4219 138.543C90.1354 138.361 89.7871 138.27 89.377 138.27C88.9408 138.27 88.5762 138.361 88.2832 138.543C87.9967 138.725 87.7721 138.976 87.6094 139.295C87.4531 139.607 87.3424 139.959 87.2773 140.35C87.2188 140.734 87.1895 141.137 87.1895 141.561V141.873C87.1895 142.303 87.2188 142.713 87.2773 143.104C87.3424 143.494 87.4531 143.846 87.6094 144.158C87.7721 144.464 87.9967 144.708 88.2832 144.891C88.5762 145.073 88.9473 145.164 89.3965 145.164ZM99.8262 145.164C100.191 145.164 100.516 145.092 100.803 144.949C101.089 144.806 101.317 144.604 101.486 144.344C101.662 144.083 101.757 143.781 101.77 143.436H104.201C104.188 144.152 103.986 144.793 103.596 145.359C103.205 145.926 102.684 146.375 102.033 146.707C101.389 147.033 100.666 147.195 99.8652 147.195C99.0514 147.195 98.3418 147.059 97.7363 146.785C97.1309 146.512 96.6263 146.131 96.2227 145.643C95.8255 145.154 95.526 144.588 95.3242 143.943C95.1289 143.299 95.0312 142.609 95.0312 141.873V141.561C95.0312 140.825 95.1289 140.135 95.3242 139.49C95.526 138.846 95.8255 138.279 96.2227 137.791C96.6263 137.303 97.1309 136.922 97.7363 136.648C98.3418 136.375 99.0482 136.238 99.8555 136.238C100.708 136.238 101.457 136.404 102.102 136.736C102.753 137.068 103.26 137.537 103.625 138.143C103.996 138.748 104.188 139.461 104.201 140.281H101.77C101.757 139.904 101.672 139.565 101.516 139.266C101.359 138.966 101.138 138.725 100.852 138.543C100.565 138.361 100.217 138.27 99.8066 138.27C99.3704 138.27 99.0059 138.361 98.7129 138.543C98.4264 138.725 98.2018 138.976 98.0391 139.295C97.8828 139.607 97.7721 139.959 97.707 140.35C97.6484 140.734 97.6191 141.137 97.6191 141.561V141.873C97.6191 142.303 97.6484 142.713 97.707 143.104C97.7721 143.494 97.8828 143.846 98.0391 144.158C98.2018 144.464 98.4264 144.708 98.7129 144.891C99.0059 145.073 99.377 145.164 99.8262 145.164ZM105.461 141.824V141.619C105.461 140.844 105.572 140.132 105.793 139.48C106.014 138.823 106.337 138.253 106.76 137.771C107.183 137.29 107.701 136.915 108.312 136.648C108.924 136.375 109.621 136.238 110.402 136.238C111.197 136.238 111.9 136.375 112.512 136.648C113.13 136.915 113.651 137.29 114.074 137.771C114.497 138.253 114.82 138.823 115.041 139.48C115.262 140.132 115.373 140.844 115.373 141.619V141.824C115.373 142.592 115.262 143.305 115.041 143.963C114.82 144.614 114.497 145.184 114.074 145.672C113.651 146.154 113.133 146.528 112.521 146.795C111.91 147.062 111.21 147.195 110.422 147.195C109.641 147.195 108.941 147.062 108.322 146.795C107.704 146.528 107.183 146.154 106.76 145.672C106.337 145.184 106.014 144.614 105.793 143.963C105.572 143.305 105.461 142.592 105.461 141.824ZM108.039 141.619V141.824C108.039 142.286 108.085 142.719 108.176 143.123C108.267 143.527 108.407 143.882 108.596 144.188C108.785 144.493 109.029 144.734 109.328 144.91C109.634 145.079 109.999 145.164 110.422 145.164C110.839 145.164 111.197 145.079 111.496 144.91C111.796 144.734 112.04 144.493 112.229 144.188C112.424 143.882 112.567 143.527 112.658 143.123C112.749 142.719 112.795 142.286 112.795 141.824V141.619C112.795 141.163 112.749 140.737 112.658 140.34C112.567 139.936 112.424 139.581 112.229 139.275C112.04 138.963 111.792 138.719 111.486 138.543C111.187 138.361 110.826 138.27 110.402 138.27C109.986 138.27 109.628 138.361 109.328 138.543C109.029 138.719 108.785 138.963 108.596 139.275C108.407 139.581 108.267 139.936 108.176 140.34C108.085 140.737 108.039 141.163 108.039 141.619ZM123.537 144.49V136.434H126.135V147H123.693L123.537 144.49ZM123.869 142.303L124.67 142.283C124.67 142.993 124.592 143.647 124.436 144.246C124.279 144.845 124.035 145.366 123.703 145.809C123.378 146.245 122.964 146.587 122.463 146.834C121.962 147.075 121.369 147.195 120.686 147.195C120.165 147.195 119.689 147.124 119.26 146.98C118.83 146.831 118.459 146.6 118.146 146.287C117.84 145.968 117.603 145.561 117.434 145.066C117.264 144.565 117.18 143.963 117.18 143.26V136.434H119.758V143.279C119.758 143.631 119.797 143.924 119.875 144.158C119.96 144.393 120.074 144.585 120.217 144.734C120.367 144.878 120.539 144.982 120.734 145.047C120.936 145.105 121.151 145.135 121.379 145.135C122.004 145.135 122.495 145.011 122.854 144.764C123.218 144.51 123.479 144.171 123.635 143.748C123.791 143.318 123.869 142.837 123.869 142.303ZM130.949 138.689V147H128.371V136.434H130.793L130.949 138.689ZM130.539 141.336H129.777C129.784 140.568 129.888 139.871 130.09 139.246C130.292 138.621 130.575 138.084 130.939 137.635C131.311 137.186 131.75 136.84 132.258 136.6C132.766 136.359 133.332 136.238 133.957 136.238C134.465 136.238 134.924 136.31 135.334 136.453C135.744 136.596 136.096 136.824 136.389 137.137C136.688 137.449 136.916 137.859 137.072 138.367C137.235 138.868 137.316 139.487 137.316 140.223V147H134.719V140.203C134.719 139.721 134.647 139.34 134.504 139.061C134.367 138.781 134.165 138.582 133.898 138.465C133.638 138.348 133.316 138.289 132.932 138.289C132.535 138.289 132.186 138.37 131.887 138.533C131.594 138.689 131.346 138.908 131.145 139.188C130.949 139.467 130.799 139.79 130.695 140.154C130.591 140.519 130.539 140.913 130.539 141.336ZM144.592 136.434V138.289H138.537V136.434H144.592ZM140.158 133.836H142.746V143.953C142.746 144.266 142.788 144.507 142.873 144.676C142.958 144.845 143.085 144.959 143.254 145.018C143.423 145.076 143.625 145.105 143.859 145.105C144.029 145.105 144.185 145.096 144.328 145.076C144.471 145.057 144.592 145.037 144.689 145.018L144.699 146.951C144.484 147.023 144.24 147.081 143.967 147.127C143.7 147.173 143.397 147.195 143.059 147.195C142.479 147.195 141.971 147.098 141.535 146.902C141.099 146.701 140.76 146.378 140.52 145.936C140.279 145.486 140.158 144.894 140.158 144.158V133.836ZM159.807 142.322H162.492C162.421 143.273 162.157 144.116 161.701 144.852C161.245 145.581 160.611 146.154 159.797 146.57C158.983 146.987 157.997 147.195 156.838 147.195C155.946 147.195 155.142 147.039 154.426 146.727C153.716 146.408 153.107 145.955 152.6 145.369C152.098 144.777 151.714 144.067 151.447 143.24C151.18 142.407 151.047 141.473 151.047 140.438V139.354C151.047 138.318 151.184 137.384 151.457 136.551C151.73 135.717 152.121 135.008 152.629 134.422C153.143 133.829 153.758 133.374 154.475 133.055C155.197 132.736 156.005 132.576 156.896 132.576C158.055 132.576 159.035 132.791 159.836 133.221C160.637 133.644 161.258 134.227 161.701 134.969C162.144 135.711 162.411 136.564 162.502 137.527H159.816C159.764 136.928 159.634 136.421 159.426 136.004C159.224 135.587 158.918 135.271 158.508 135.057C158.104 134.835 157.567 134.725 156.896 134.725C156.376 134.725 155.917 134.822 155.52 135.018C155.129 135.213 154.803 135.506 154.543 135.896C154.283 136.281 154.087 136.762 153.957 137.342C153.827 137.915 153.762 138.579 153.762 139.334V140.438C153.762 141.16 153.82 141.808 153.938 142.381C154.055 142.954 154.237 143.439 154.484 143.836C154.732 144.233 155.051 144.536 155.441 144.744C155.832 144.952 156.298 145.057 156.838 145.057C157.495 145.057 158.029 144.952 158.439 144.744C158.856 144.536 159.172 144.23 159.387 143.826C159.608 143.423 159.748 142.921 159.807 142.322ZM166.955 138.592V147H164.377V136.434H166.818L166.955 138.592ZM170.168 136.365L170.129 138.768C169.986 138.742 169.823 138.722 169.641 138.709C169.465 138.696 169.299 138.689 169.143 138.689C168.745 138.689 168.397 138.745 168.098 138.855C167.798 138.96 167.548 139.113 167.346 139.314C167.15 139.516 167.001 139.764 166.896 140.057C166.792 140.343 166.734 140.669 166.721 141.033L166.164 140.965C166.164 140.294 166.232 139.673 166.369 139.1C166.506 138.527 166.704 138.025 166.965 137.596C167.225 137.166 167.551 136.834 167.941 136.6C168.339 136.359 168.794 136.238 169.309 136.238C169.452 136.238 169.605 136.251 169.768 136.277C169.937 136.297 170.07 136.326 170.168 136.365ZM176.135 147.195C175.334 147.195 174.615 147.065 173.977 146.805C173.339 146.544 172.795 146.183 172.346 145.721C171.903 145.252 171.561 144.708 171.32 144.09C171.086 143.465 170.969 142.794 170.969 142.078V141.688C170.969 140.874 171.086 140.135 171.32 139.471C171.555 138.8 171.887 138.224 172.316 137.742C172.746 137.26 173.26 136.889 173.859 136.629C174.458 136.368 175.119 136.238 175.842 136.238C176.59 136.238 177.251 136.365 177.824 136.619C178.397 136.867 178.876 137.218 179.26 137.674C179.644 138.13 179.934 138.676 180.129 139.314C180.324 139.946 180.422 140.646 180.422 141.414V142.498H172.141V140.721H177.883V140.525C177.87 140.115 177.792 139.741 177.648 139.402C177.505 139.057 177.284 138.784 176.984 138.582C176.685 138.374 176.298 138.27 175.822 138.27C175.438 138.27 175.103 138.354 174.816 138.523C174.536 138.686 174.302 138.921 174.113 139.227C173.931 139.526 173.794 139.884 173.703 140.301C173.612 140.717 173.566 141.18 173.566 141.688V142.078C173.566 142.521 173.625 142.931 173.742 143.309C173.866 143.686 174.045 144.015 174.279 144.295C174.52 144.568 174.807 144.783 175.139 144.939C175.477 145.089 175.861 145.164 176.291 145.164C176.831 145.164 177.32 145.06 177.756 144.852C178.199 144.637 178.583 144.321 178.908 143.904L180.207 145.252C179.986 145.577 179.686 145.89 179.309 146.189C178.938 146.489 178.488 146.733 177.961 146.922C177.434 147.104 176.825 147.195 176.135 147.195ZM187.971 144.754V139.881C187.971 139.523 187.909 139.214 187.785 138.953C187.661 138.693 187.473 138.491 187.219 138.348C186.965 138.204 186.643 138.133 186.252 138.133C185.907 138.133 185.604 138.191 185.344 138.309C185.09 138.426 184.895 138.592 184.758 138.807C184.621 139.015 184.553 139.256 184.553 139.529H181.965C181.965 139.093 182.069 138.68 182.277 138.289C182.486 137.892 182.782 137.54 183.166 137.234C183.557 136.922 184.022 136.678 184.562 136.502C185.109 136.326 185.721 136.238 186.398 136.238C187.199 136.238 187.912 136.375 188.537 136.648C189.169 136.915 189.663 137.319 190.021 137.859C190.386 138.4 190.568 139.08 190.568 139.9V144.51C190.568 145.037 190.601 145.49 190.666 145.867C190.738 146.238 190.842 146.561 190.979 146.834V147H188.352C188.228 146.733 188.133 146.395 188.068 145.984C188.003 145.568 187.971 145.158 187.971 144.754ZM188.332 140.564L188.352 142.098H186.721C186.317 142.098 185.962 142.14 185.656 142.225C185.35 142.303 185.1 142.42 184.904 142.576C184.709 142.726 184.562 142.908 184.465 143.123C184.367 143.331 184.318 143.569 184.318 143.836C184.318 144.096 184.377 144.331 184.494 144.539C184.618 144.747 184.794 144.913 185.021 145.037C185.256 145.154 185.529 145.213 185.842 145.213C186.298 145.213 186.695 145.122 187.033 144.939C187.372 144.751 187.635 144.523 187.824 144.256C188.013 143.989 188.114 143.735 188.127 143.494L188.869 144.607C188.778 144.874 188.641 145.158 188.459 145.457C188.277 145.757 188.042 146.036 187.756 146.297C187.469 146.557 187.124 146.772 186.721 146.941C186.317 147.111 185.848 147.195 185.314 147.195C184.631 147.195 184.019 147.059 183.479 146.785C182.938 146.512 182.512 146.137 182.199 145.662C181.887 145.187 181.73 144.646 181.73 144.041C181.73 143.481 181.835 142.986 182.043 142.557C182.251 142.127 182.561 141.766 182.971 141.473C183.381 141.173 183.889 140.949 184.494 140.799C185.106 140.643 185.806 140.564 186.594 140.564H188.332ZM197.893 136.434V138.289H191.838V136.434H197.893ZM193.459 133.836H196.047V143.953C196.047 144.266 196.089 144.507 196.174 144.676C196.258 144.845 196.385 144.959 196.555 145.018C196.724 145.076 196.926 145.105 197.16 145.105C197.329 145.105 197.486 145.096 197.629 145.076C197.772 145.057 197.893 145.037 197.99 145.018L198 146.951C197.785 147.023 197.541 147.081 197.268 147.127C197.001 147.173 196.698 147.195 196.359 147.195C195.78 147.195 195.272 147.098 194.836 146.902C194.4 146.701 194.061 146.378 193.82 145.936C193.579 145.486 193.459 144.894 193.459 144.158V133.836ZM204.357 147.195C203.557 147.195 202.837 147.065 202.199 146.805C201.561 146.544 201.018 146.183 200.568 145.721C200.126 145.252 199.784 144.708 199.543 144.09C199.309 143.465 199.191 142.794 199.191 142.078V141.688C199.191 140.874 199.309 140.135 199.543 139.471C199.777 138.8 200.109 138.224 200.539 137.742C200.969 137.26 201.483 136.889 202.082 136.629C202.681 136.368 203.342 136.238 204.064 136.238C204.813 136.238 205.474 136.365 206.047 136.619C206.62 136.867 207.098 137.218 207.482 137.674C207.867 138.13 208.156 138.676 208.352 139.314C208.547 139.946 208.645 140.646 208.645 141.414V142.498H200.363V140.721H206.105V140.525C206.092 140.115 206.014 139.741 205.871 139.402C205.728 139.057 205.507 138.784 205.207 138.582C204.908 138.374 204.52 138.27 204.045 138.27C203.661 138.27 203.326 138.354 203.039 138.523C202.759 138.686 202.525 138.921 202.336 139.227C202.154 139.526 202.017 139.884 201.926 140.301C201.835 140.717 201.789 141.18 201.789 141.688V142.078C201.789 142.521 201.848 142.931 201.965 143.309C202.089 143.686 202.268 144.015 202.502 144.295C202.743 144.568 203.029 144.783 203.361 144.939C203.7 145.089 204.084 145.164 204.514 145.164C205.054 145.164 205.542 145.06 205.979 144.852C206.421 144.637 206.805 144.321 207.131 143.904L208.43 145.252C208.208 145.577 207.909 145.89 207.531 146.189C207.16 146.489 206.711 146.733 206.184 146.922C205.656 147.104 205.048 147.195 204.357 147.195ZM216.711 144.754V132H219.309V147H216.965L216.711 144.754ZM209.924 141.844V141.639C209.924 140.831 210.015 140.099 210.197 139.441C210.386 138.777 210.66 138.208 211.018 137.732C211.376 137.257 211.809 136.889 212.316 136.629C212.831 136.368 213.413 136.238 214.064 136.238C214.696 136.238 215.246 136.365 215.715 136.619C216.19 136.873 216.594 137.234 216.926 137.703C217.264 138.172 217.535 138.729 217.736 139.373C217.938 140.011 218.085 140.714 218.176 141.482V142.039C218.085 142.788 217.938 143.475 217.736 144.1C217.535 144.725 217.264 145.271 216.926 145.74C216.594 146.202 216.19 146.561 215.715 146.814C215.24 147.068 214.683 147.195 214.045 147.195C213.4 147.195 212.821 147.062 212.307 146.795C211.799 146.528 211.366 146.154 211.008 145.672C210.656 145.19 210.386 144.624 210.197 143.973C210.015 143.322 209.924 142.612 209.924 141.844ZM212.512 141.639V141.844C212.512 142.299 212.551 142.726 212.629 143.123C212.707 143.52 212.834 143.872 213.01 144.178C213.186 144.477 213.41 144.712 213.684 144.881C213.964 145.05 214.302 145.135 214.699 145.135C215.207 145.135 215.624 145.024 215.949 144.803C216.281 144.575 216.538 144.266 216.721 143.875C216.903 143.478 217.02 143.032 217.072 142.537V141.004C217.046 140.613 216.978 140.252 216.867 139.92C216.763 139.588 216.613 139.301 216.418 139.061C216.229 138.82 215.995 138.631 215.715 138.494C215.435 138.357 215.103 138.289 214.719 138.289C214.322 138.289 213.983 138.377 213.703 138.553C213.423 138.722 213.195 138.96 213.02 139.266C212.844 139.572 212.714 139.926 212.629 140.33C212.551 140.734 212.512 141.17 212.512 141.639ZM99.6992 167.309C99.6992 167.035 99.6569 166.791 99.5723 166.576C99.4941 166.355 99.3477 166.156 99.1328 165.98C98.9245 165.798 98.6283 165.622 98.2441 165.453C97.8665 165.277 97.3783 165.095 96.7793 164.906C96.1152 164.698 95.4967 164.464 94.9238 164.203C94.3509 163.943 93.8464 163.64 93.4102 163.295C92.9805 162.95 92.6452 162.553 92.4043 162.104C92.1634 161.648 92.043 161.12 92.043 160.521C92.043 159.936 92.1667 159.402 92.4141 158.92C92.668 158.438 93.026 158.025 93.4883 157.68C93.9505 157.328 94.4941 157.058 95.1191 156.869C95.7507 156.68 96.4473 156.586 97.209 156.586C98.2637 156.586 99.1751 156.778 99.9434 157.162C100.718 157.546 101.317 158.067 101.74 158.725C102.163 159.382 102.375 160.121 102.375 160.941H99.6992C99.6992 160.499 99.6048 160.108 99.416 159.77C99.2337 159.431 98.9538 159.164 98.5762 158.969C98.2051 158.773 97.7363 158.676 97.1699 158.676C96.623 158.676 96.1673 158.757 95.8027 158.92C95.4447 159.083 95.1745 159.304 94.9922 159.584C94.8164 159.864 94.7285 160.176 94.7285 160.521C94.7285 160.782 94.7904 161.016 94.9141 161.225C95.0378 161.426 95.2233 161.618 95.4707 161.801C95.7181 161.977 96.0241 162.143 96.3887 162.299C96.7598 162.449 97.1895 162.598 97.6777 162.748C98.459 162.982 99.1426 163.243 99.7285 163.529C100.321 163.816 100.812 164.141 101.203 164.506C101.6 164.87 101.896 165.281 102.092 165.736C102.294 166.192 102.395 166.71 102.395 167.289C102.395 167.901 102.274 168.448 102.033 168.93C101.792 169.411 101.447 169.822 100.998 170.16C100.549 170.499 100.008 170.756 99.377 170.932C98.752 171.107 98.0521 171.195 97.2773 171.195C96.5872 171.195 95.9036 171.104 95.2266 170.922C94.556 170.733 93.9473 170.453 93.4004 170.082C92.8535 169.704 92.4173 169.229 92.0918 168.656C91.7663 168.077 91.6035 167.4 91.6035 166.625H94.2988C94.2988 167.074 94.3704 167.458 94.5137 167.777C94.6634 168.09 94.8717 168.347 95.1387 168.549C95.4121 168.744 95.7311 168.887 96.0957 168.979C96.4603 169.07 96.8542 169.115 97.2773 169.115C97.8242 169.115 98.2734 169.04 98.625 168.891C98.9831 168.734 99.25 168.52 99.4258 168.246C99.6081 167.973 99.6992 167.66 99.6992 167.309ZM110.559 168.49V160.434H113.156V171H110.715L110.559 168.49ZM110.891 166.303L111.691 166.283C111.691 166.993 111.613 167.647 111.457 168.246C111.301 168.845 111.057 169.366 110.725 169.809C110.399 170.245 109.986 170.587 109.484 170.834C108.983 171.075 108.391 171.195 107.707 171.195C107.186 171.195 106.711 171.124 106.281 170.98C105.852 170.831 105.48 170.6 105.168 170.287C104.862 169.968 104.624 169.561 104.455 169.066C104.286 168.565 104.201 167.963 104.201 167.26V160.434H106.779V167.279C106.779 167.631 106.818 167.924 106.896 168.158C106.981 168.393 107.095 168.585 107.238 168.734C107.388 168.878 107.561 168.982 107.756 169.047C107.958 169.105 108.173 169.135 108.4 169.135C109.025 169.135 109.517 169.011 109.875 168.764C110.24 168.51 110.5 168.171 110.656 167.748C110.812 167.318 110.891 166.837 110.891 166.303ZM119.777 169.164C120.142 169.164 120.467 169.092 120.754 168.949C121.04 168.806 121.268 168.604 121.438 168.344C121.613 168.083 121.708 167.781 121.721 167.436H124.152C124.139 168.152 123.938 168.793 123.547 169.359C123.156 169.926 122.635 170.375 121.984 170.707C121.34 171.033 120.617 171.195 119.816 171.195C119.003 171.195 118.293 171.059 117.688 170.785C117.082 170.512 116.577 170.131 116.174 169.643C115.777 169.154 115.477 168.588 115.275 167.943C115.08 167.299 114.982 166.609 114.982 165.873V165.561C114.982 164.825 115.08 164.135 115.275 163.49C115.477 162.846 115.777 162.279 116.174 161.791C116.577 161.303 117.082 160.922 117.688 160.648C118.293 160.375 118.999 160.238 119.807 160.238C120.66 160.238 121.408 160.404 122.053 160.736C122.704 161.068 123.212 161.537 123.576 162.143C123.947 162.748 124.139 163.461 124.152 164.281H121.721C121.708 163.904 121.623 163.565 121.467 163.266C121.311 162.966 121.089 162.725 120.803 162.543C120.516 162.361 120.168 162.27 119.758 162.27C119.322 162.27 118.957 162.361 118.664 162.543C118.378 162.725 118.153 162.976 117.99 163.295C117.834 163.607 117.723 163.959 117.658 164.35C117.6 164.734 117.57 165.137 117.57 165.561V165.873C117.57 166.303 117.6 166.713 117.658 167.104C117.723 167.494 117.834 167.846 117.99 168.158C118.153 168.464 118.378 168.708 118.664 168.891C118.957 169.073 119.328 169.164 119.777 169.164ZM130.207 169.164C130.572 169.164 130.897 169.092 131.184 168.949C131.47 168.806 131.698 168.604 131.867 168.344C132.043 168.083 132.137 167.781 132.15 167.436H134.582C134.569 168.152 134.367 168.793 133.977 169.359C133.586 169.926 133.065 170.375 132.414 170.707C131.77 171.033 131.047 171.195 130.246 171.195C129.432 171.195 128.723 171.059 128.117 170.785C127.512 170.512 127.007 170.131 126.604 169.643C126.206 169.154 125.907 168.588 125.705 167.943C125.51 167.299 125.412 166.609 125.412 165.873V165.561C125.412 164.825 125.51 164.135 125.705 163.49C125.907 162.846 126.206 162.279 126.604 161.791C127.007 161.303 127.512 160.922 128.117 160.648C128.723 160.375 129.429 160.238 130.236 160.238C131.089 160.238 131.838 160.404 132.482 160.736C133.133 161.068 133.641 161.537 134.006 162.143C134.377 162.748 134.569 163.461 134.582 164.281H132.15C132.137 163.904 132.053 163.565 131.896 163.266C131.74 162.966 131.519 162.725 131.232 162.543C130.946 162.361 130.598 162.27 130.188 162.27C129.751 162.27 129.387 162.361 129.094 162.543C128.807 162.725 128.583 162.976 128.42 163.295C128.264 163.607 128.153 163.959 128.088 164.35C128.029 164.734 128 165.137 128 165.561V165.873C128 166.303 128.029 166.713 128.088 167.104C128.153 167.494 128.264 167.846 128.42 168.158C128.583 168.464 128.807 168.708 129.094 168.891C129.387 169.073 129.758 169.164 130.207 169.164ZM141.047 171.195C140.246 171.195 139.527 171.065 138.889 170.805C138.251 170.544 137.707 170.183 137.258 169.721C136.815 169.252 136.473 168.708 136.232 168.09C135.998 167.465 135.881 166.794 135.881 166.078V165.688C135.881 164.874 135.998 164.135 136.232 163.471C136.467 162.8 136.799 162.224 137.229 161.742C137.658 161.26 138.173 160.889 138.771 160.629C139.37 160.368 140.031 160.238 140.754 160.238C141.503 160.238 142.163 160.365 142.736 160.619C143.309 160.867 143.788 161.218 144.172 161.674C144.556 162.13 144.846 162.676 145.041 163.314C145.236 163.946 145.334 164.646 145.334 165.414V166.498H137.053V164.721H142.795V164.525C142.782 164.115 142.704 163.741 142.561 163.402C142.417 163.057 142.196 162.784 141.896 162.582C141.597 162.374 141.21 162.27 140.734 162.27C140.35 162.27 140.015 162.354 139.729 162.523C139.449 162.686 139.214 162.921 139.025 163.227C138.843 163.526 138.706 163.884 138.615 164.301C138.524 164.717 138.479 165.18 138.479 165.688V166.078C138.479 166.521 138.537 166.931 138.654 167.309C138.778 167.686 138.957 168.015 139.191 168.295C139.432 168.568 139.719 168.783 140.051 168.939C140.389 169.089 140.773 169.164 141.203 169.164C141.743 169.164 142.232 169.06 142.668 168.852C143.111 168.637 143.495 168.321 143.82 167.904L145.119 169.252C144.898 169.577 144.598 169.89 144.221 170.189C143.85 170.489 143.4 170.733 142.873 170.922C142.346 171.104 141.737 171.195 141.047 171.195ZM152.873 168.109C152.873 167.888 152.814 167.689 152.697 167.514C152.58 167.338 152.359 167.178 152.033 167.035C151.714 166.885 151.245 166.745 150.627 166.615C150.08 166.498 149.576 166.352 149.113 166.176C148.651 166 148.254 165.788 147.922 165.541C147.59 165.287 147.329 164.991 147.141 164.652C146.958 164.307 146.867 163.91 146.867 163.461C146.867 163.025 146.962 162.615 147.15 162.23C147.339 161.84 147.613 161.498 147.971 161.205C148.329 160.906 148.765 160.671 149.279 160.502C149.794 160.326 150.373 160.238 151.018 160.238C151.916 160.238 152.688 160.385 153.332 160.678C153.983 160.971 154.481 161.374 154.826 161.889C155.171 162.396 155.344 162.969 155.344 163.607H152.766C152.766 163.327 152.701 163.074 152.57 162.846C152.447 162.618 152.255 162.436 151.994 162.299C151.734 162.156 151.405 162.084 151.008 162.084C150.65 162.084 150.347 162.143 150.1 162.26C149.859 162.377 149.676 162.53 149.553 162.719C149.429 162.908 149.367 163.116 149.367 163.344C149.367 163.513 149.4 163.666 149.465 163.803C149.536 163.933 149.65 164.053 149.807 164.164C149.963 164.275 150.174 164.376 150.441 164.467C150.715 164.558 151.05 164.646 151.447 164.73C152.235 164.887 152.922 165.095 153.508 165.355C154.1 165.609 154.562 165.948 154.895 166.371C155.227 166.794 155.393 167.335 155.393 167.992C155.393 168.461 155.292 168.891 155.09 169.281C154.888 169.665 154.595 170.001 154.211 170.287C153.827 170.574 153.368 170.798 152.834 170.961C152.3 171.117 151.698 171.195 151.027 171.195C150.057 171.195 149.237 171.023 148.566 170.678C147.896 170.326 147.388 169.883 147.043 169.35C146.698 168.809 146.525 168.249 146.525 167.67H148.996C149.016 168.08 149.126 168.409 149.328 168.656C149.53 168.904 149.784 169.083 150.09 169.193C150.402 169.298 150.731 169.35 151.076 169.35C151.467 169.35 151.796 169.298 152.062 169.193C152.329 169.083 152.531 168.936 152.668 168.754C152.805 168.565 152.873 168.35 152.873 168.109ZM163.166 168.109C163.166 167.888 163.107 167.689 162.99 167.514C162.873 167.338 162.652 167.178 162.326 167.035C162.007 166.885 161.538 166.745 160.92 166.615C160.373 166.498 159.868 166.352 159.406 166.176C158.944 166 158.547 165.788 158.215 165.541C157.883 165.287 157.622 164.991 157.434 164.652C157.251 164.307 157.16 163.91 157.16 163.461C157.16 163.025 157.255 162.615 157.443 162.23C157.632 161.84 157.906 161.498 158.264 161.205C158.622 160.906 159.058 160.671 159.572 160.502C160.087 160.326 160.666 160.238 161.311 160.238C162.209 160.238 162.98 160.385 163.625 160.678C164.276 160.971 164.774 161.374 165.119 161.889C165.464 162.396 165.637 162.969 165.637 163.607H163.059C163.059 163.327 162.993 163.074 162.863 162.846C162.74 162.618 162.548 162.436 162.287 162.299C162.027 162.156 161.698 162.084 161.301 162.084C160.943 162.084 160.64 162.143 160.393 162.26C160.152 162.377 159.969 162.53 159.846 162.719C159.722 162.908 159.66 163.116 159.66 163.344C159.66 163.513 159.693 163.666 159.758 163.803C159.829 163.933 159.943 164.053 160.1 164.164C160.256 164.275 160.467 164.376 160.734 164.467C161.008 164.558 161.343 164.646 161.74 164.73C162.528 164.887 163.215 165.095 163.801 165.355C164.393 165.609 164.855 165.948 165.188 166.371C165.52 166.794 165.686 167.335 165.686 167.992C165.686 168.461 165.585 168.891 165.383 169.281C165.181 169.665 164.888 170.001 164.504 170.287C164.12 170.574 163.661 170.798 163.127 170.961C162.593 171.117 161.991 171.195 161.32 171.195C160.35 171.195 159.53 171.023 158.859 170.678C158.189 170.326 157.681 169.883 157.336 169.35C156.991 168.809 156.818 168.249 156.818 167.67H159.289C159.309 168.08 159.419 168.409 159.621 168.656C159.823 168.904 160.077 169.083 160.383 169.193C160.695 169.298 161.024 169.35 161.369 169.35C161.76 169.35 162.089 169.298 162.355 169.193C162.622 169.083 162.824 168.936 162.961 168.754C163.098 168.565 163.166 168.35 163.166 168.109ZM171.027 171H168.43V159.457C168.43 158.663 168.583 157.995 168.889 157.455C169.195 156.908 169.631 156.495 170.197 156.215C170.764 155.935 171.431 155.795 172.199 155.795C172.453 155.795 172.694 155.811 172.922 155.844C173.156 155.876 173.387 155.922 173.615 155.98L173.566 157.943C173.443 157.911 173.306 157.888 173.156 157.875C173.013 157.862 172.854 157.855 172.678 157.855C172.326 157.855 172.027 157.917 171.779 158.041C171.532 158.165 171.343 158.347 171.213 158.588C171.089 158.822 171.027 159.112 171.027 159.457V171ZM173.166 160.434V162.289H166.838V160.434H173.166ZM181.047 168.49V160.434H183.645V171H181.203L181.047 168.49ZM181.379 166.303L182.18 166.283C182.18 166.993 182.102 167.647 181.945 168.246C181.789 168.845 181.545 169.366 181.213 169.809C180.887 170.245 180.474 170.587 179.973 170.834C179.471 171.075 178.879 171.195 178.195 171.195C177.674 171.195 177.199 171.124 176.77 170.98C176.34 170.831 175.969 170.6 175.656 170.287C175.35 169.968 175.113 169.561 174.943 169.066C174.774 168.565 174.689 167.963 174.689 167.26V160.434H177.268V167.279C177.268 167.631 177.307 167.924 177.385 168.158C177.469 168.393 177.583 168.585 177.727 168.734C177.876 168.878 178.049 168.982 178.244 169.047C178.446 169.105 178.661 169.135 178.889 169.135C179.514 169.135 180.005 169.011 180.363 168.764C180.728 168.51 180.988 168.171 181.145 167.748C181.301 167.318 181.379 166.837 181.379 166.303ZM188.664 156V171H186.076V156H188.664ZM193.859 156V171H191.271V156H193.859ZM199.416 169.828L202.248 160.434H205.012L200.773 172.602C200.676 172.862 200.549 173.145 200.393 173.451C200.243 173.757 200.041 174.047 199.787 174.32C199.533 174.6 199.214 174.828 198.83 175.004C198.452 175.18 197.993 175.268 197.453 175.268C197.219 175.268 197.01 175.251 196.828 175.219C196.646 175.186 196.454 175.144 196.252 175.092V173.158C196.317 173.165 196.392 173.168 196.477 173.168C196.568 173.174 196.646 173.178 196.711 173.178C197.089 173.178 197.401 173.132 197.648 173.041C197.896 172.956 198.094 172.816 198.244 172.621C198.4 172.432 198.531 172.185 198.635 171.879L199.416 169.828ZM198.02 160.434L200.412 168.217L200.832 170.941L199.055 171.264L195.236 160.434H198.02Z" fill="#010144"/>
<path d="M40.7988 207.927V209H35.8223V207.927H40.7988ZM36.082 199.047V209H34.7627V199.047H36.082ZM41.7832 205.384V205.227C41.7832 204.693 41.8607 204.199 42.0156 203.743C42.1706 203.283 42.3939 202.884 42.6855 202.547C42.9772 202.205 43.3304 201.941 43.7451 201.754C44.1598 201.562 44.6247 201.467 45.1396 201.467C45.6592 201.467 46.1263 201.562 46.541 201.754C46.9603 201.941 47.3158 202.205 47.6074 202.547C47.9036 202.884 48.1292 203.283 48.2842 203.743C48.4391 204.199 48.5166 204.693 48.5166 205.227V205.384C48.5166 205.917 48.4391 206.411 48.2842 206.867C48.1292 207.323 47.9036 207.722 47.6074 208.063C47.3158 208.401 46.9626 208.665 46.5479 208.856C46.1377 209.043 45.6729 209.137 45.1533 209.137C44.6338 209.137 44.1667 209.043 43.752 208.856C43.3372 208.665 42.9818 208.401 42.6855 208.063C42.3939 207.722 42.1706 207.323 42.0156 206.867C41.8607 206.411 41.7832 205.917 41.7832 205.384ZM43.0479 205.227V205.384C43.0479 205.753 43.0911 206.102 43.1777 206.43C43.2643 206.753 43.3942 207.04 43.5674 207.291C43.7451 207.542 43.9661 207.74 44.2305 207.886C44.4948 208.027 44.8024 208.098 45.1533 208.098C45.4997 208.098 45.8027 208.027 46.0625 207.886C46.3268 207.74 46.5456 207.542 46.7188 207.291C46.8919 207.04 47.0218 206.753 47.1084 206.43C47.1995 206.102 47.2451 205.753 47.2451 205.384V205.227C47.2451 204.862 47.1995 204.518 47.1084 204.194C47.0218 203.866 46.8896 203.577 46.7119 203.326C46.5387 203.071 46.32 202.87 46.0557 202.725C45.7959 202.579 45.4906 202.506 45.1396 202.506C44.7933 202.506 44.488 202.579 44.2236 202.725C43.9639 202.87 43.7451 203.071 43.5674 203.326C43.3942 203.577 43.2643 203.866 43.1777 204.194C43.0911 204.518 43.0479 204.862 43.0479 205.227ZM54.8945 201.604H56.043V208.843C56.043 209.494 55.9108 210.05 55.6465 210.511C55.3822 210.971 55.013 211.32 54.5391 211.557C54.0697 211.798 53.5273 211.919 52.9121 211.919C52.6569 211.919 52.3561 211.878 52.0098 211.796C51.668 211.718 51.3307 211.584 50.998 211.393C50.6699 211.206 50.3942 210.953 50.1709 210.634L50.834 209.882C51.1439 210.256 51.4674 210.515 51.8047 210.661C52.1465 210.807 52.4837 210.88 52.8164 210.88C53.2174 210.88 53.5638 210.805 53.8555 210.654C54.1471 210.504 54.3727 210.281 54.5322 209.984C54.6963 209.693 54.7783 209.333 54.7783 208.904V203.23L54.8945 201.604ZM49.8018 205.384V205.24C49.8018 204.675 49.8678 204.162 50 203.702C50.1367 203.237 50.3304 202.839 50.5811 202.506C50.8363 202.173 51.1439 201.918 51.5039 201.74C51.8639 201.558 52.2695 201.467 52.7207 201.467C53.1855 201.467 53.5911 201.549 53.9375 201.713C54.2884 201.872 54.5846 202.107 54.8262 202.417C55.0723 202.722 55.266 203.091 55.4072 203.524C55.5485 203.957 55.6465 204.447 55.7012 204.994V205.623C55.651 206.165 55.5531 206.653 55.4072 207.086C55.266 207.519 55.0723 207.888 54.8262 208.193C54.5846 208.499 54.2884 208.733 53.9375 208.897C53.5866 209.057 53.1764 209.137 52.707 209.137C52.265 209.137 51.8639 209.043 51.5039 208.856C51.1484 208.67 50.8431 208.408 50.5879 208.07C50.3327 207.733 50.1367 207.337 50 206.881C49.8678 206.421 49.8018 205.922 49.8018 205.384ZM51.0664 205.24V205.384C51.0664 205.753 51.1029 206.099 51.1758 206.423C51.2533 206.746 51.3695 207.031 51.5244 207.277C51.6839 207.523 51.8867 207.717 52.1328 207.858C52.3789 207.995 52.6729 208.063 53.0146 208.063C53.4339 208.063 53.7803 207.975 54.0537 207.797C54.3271 207.619 54.5436 207.384 54.7031 207.093C54.8672 206.801 54.9948 206.484 55.0859 206.143V204.495C55.0358 204.244 54.9583 204.003 54.8535 203.771C54.7533 203.534 54.6211 203.324 54.457 203.142C54.2975 202.955 54.0993 202.807 53.8623 202.697C53.6253 202.588 53.3473 202.533 53.0283 202.533C52.682 202.533 52.3835 202.606 52.1328 202.752C51.8867 202.893 51.6839 203.089 51.5244 203.34C51.3695 203.586 51.2533 203.873 51.1758 204.201C51.1029 204.525 51.0664 204.871 51.0664 205.24ZM59.3379 201.604V209H58.0664V201.604H59.3379ZM57.9707 199.642C57.9707 199.437 58.0322 199.263 58.1553 199.122C58.2829 198.981 58.4697 198.91 58.7158 198.91C58.9574 198.91 59.1419 198.981 59.2695 199.122C59.4017 199.263 59.4678 199.437 59.4678 199.642C59.4678 199.838 59.4017 200.006 59.2695 200.147C59.1419 200.284 58.9574 200.353 58.7158 200.353C58.4697 200.353 58.2829 200.284 58.1553 200.147C58.0322 200.006 57.9707 199.838 57.9707 199.642ZM62.6328 203.183V209H61.3682V201.604H62.5645L62.6328 203.183ZM62.332 205.021L61.8057 205.001C61.8102 204.495 61.8854 204.028 62.0312 203.6C62.1771 203.167 62.3822 202.791 62.6465 202.472C62.9108 202.153 63.2253 201.907 63.5898 201.733C63.959 201.556 64.3669 201.467 64.8135 201.467C65.1781 201.467 65.5062 201.517 65.7979 201.617C66.0895 201.713 66.3379 201.868 66.543 202.082C66.7526 202.296 66.9121 202.574 67.0215 202.916C67.1309 203.253 67.1855 203.666 67.1855 204.153V209H65.9141V204.14C65.9141 203.752 65.8571 203.442 65.7432 203.21C65.6292 202.973 65.4629 202.802 65.2441 202.697C65.0254 202.588 64.7565 202.533 64.4375 202.533C64.123 202.533 63.8359 202.599 63.5762 202.731C63.321 202.864 63.0999 203.046 62.9131 203.278C62.7308 203.511 62.5872 203.777 62.4824 204.078C62.3822 204.374 62.332 204.689 62.332 205.021ZM77.1045 207.291V201.604H78.376V209H77.166L77.1045 207.291ZM77.3438 205.732L77.8701 205.719C77.8701 206.211 77.8177 206.667 77.7129 207.086C77.6126 207.501 77.4486 207.861 77.2207 208.166C76.9928 208.471 76.6943 208.711 76.3252 208.884C75.9561 209.052 75.5072 209.137 74.9785 209.137C74.6185 209.137 74.2881 209.084 73.9873 208.979C73.6911 208.875 73.4359 208.713 73.2217 208.494C73.0075 208.275 72.8411 207.991 72.7227 207.64C72.6087 207.289 72.5518 206.867 72.5518 206.375V201.604H73.8164V206.389C73.8164 206.721 73.8529 206.997 73.9258 207.216C74.0033 207.43 74.1058 207.601 74.2334 207.729C74.3656 207.852 74.5114 207.938 74.6709 207.988C74.835 208.038 75.0036 208.063 75.1768 208.063C75.7145 208.063 76.1406 207.961 76.4551 207.756C76.7695 207.546 76.9951 207.266 77.1318 206.915C77.2731 206.56 77.3438 206.165 77.3438 205.732ZM84.6104 207.038C84.6104 206.856 84.5693 206.687 84.4873 206.532C84.4098 206.373 84.248 206.229 84.002 206.102C83.7604 205.969 83.3958 205.855 82.9082 205.76C82.498 205.673 82.1266 205.571 81.7939 205.452C81.4658 205.334 81.1855 205.19 80.9531 205.021C80.7253 204.853 80.5498 204.655 80.4268 204.427C80.3037 204.199 80.2422 203.932 80.2422 203.627C80.2422 203.335 80.306 203.06 80.4336 202.8C80.5658 202.54 80.7503 202.31 80.9873 202.109C81.2288 201.909 81.5182 201.752 81.8555 201.638C82.1927 201.524 82.5687 201.467 82.9834 201.467C83.5758 201.467 84.0817 201.572 84.501 201.781C84.9202 201.991 85.2415 202.271 85.4648 202.622C85.6882 202.968 85.7998 203.354 85.7998 203.777H84.5352C84.5352 203.572 84.4736 203.374 84.3506 203.183C84.2321 202.987 84.0566 202.825 83.8242 202.697C83.5964 202.57 83.3161 202.506 82.9834 202.506C82.6325 202.506 82.3477 202.561 82.1289 202.67C81.9147 202.775 81.7575 202.909 81.6572 203.073C81.5615 203.237 81.5137 203.41 81.5137 203.593C81.5137 203.729 81.5365 203.853 81.582 203.962C81.6322 204.067 81.7188 204.165 81.8418 204.256C81.9648 204.342 82.138 204.424 82.3613 204.502C82.5846 204.579 82.8695 204.657 83.2158 204.734C83.8219 204.871 84.321 205.035 84.7129 205.227C85.1048 205.418 85.3965 205.653 85.5879 205.931C85.7793 206.209 85.875 206.546 85.875 206.942C85.875 207.266 85.8066 207.562 85.6699 207.831C85.5378 208.1 85.3441 208.332 85.0889 208.528C84.8382 208.72 84.5374 208.87 84.1865 208.979C83.8402 209.084 83.4505 209.137 83.0176 209.137C82.3659 209.137 81.8145 209.021 81.3633 208.788C80.9121 208.556 80.5703 208.255 80.3379 207.886C80.1055 207.517 79.9893 207.127 79.9893 206.717H81.2607C81.279 207.063 81.3792 207.339 81.5615 207.544C81.7438 207.744 81.9671 207.888 82.2314 207.975C82.4958 208.057 82.7578 208.098 83.0176 208.098C83.3639 208.098 83.6533 208.052 83.8857 207.961C84.1227 207.87 84.3027 207.744 84.4258 207.585C84.5488 207.425 84.6104 207.243 84.6104 207.038ZM88.9102 201.604V209H87.6387V201.604H88.9102ZM87.543 199.642C87.543 199.437 87.6045 199.263 87.7275 199.122C87.8551 198.981 88.042 198.91 88.2881 198.91C88.5296 198.91 88.7142 198.981 88.8418 199.122C88.974 199.263 89.04 199.437 89.04 199.642C89.04 199.838 88.974 200.006 88.8418 200.147C88.7142 200.284 88.5296 200.353 88.2881 200.353C88.042 200.353 87.8551 200.284 87.7275 200.147C87.6045 200.006 87.543 199.838 87.543 199.642ZM92.2051 203.183V209H90.9404V201.604H92.1367L92.2051 203.183ZM91.9043 205.021L91.3779 205.001C91.3825 204.495 91.4577 204.028 91.6035 203.6C91.7493 203.167 91.9544 202.791 92.2188 202.472C92.4831 202.153 92.7975 201.907 93.1621 201.733C93.5312 201.556 93.9391 201.467 94.3857 201.467C94.7503 201.467 95.0785 201.517 95.3701 201.617C95.6618 201.713 95.9102 201.868 96.1152 202.082C96.3249 202.296 96.4844 202.574 96.5938 202.916C96.7031 203.253 96.7578 203.666 96.7578 204.153V209H95.4863V204.14C95.4863 203.752 95.4294 203.442 95.3154 203.21C95.2015 202.973 95.0352 202.802 94.8164 202.697C94.5977 202.588 94.3288 202.533 94.0098 202.533C93.6953 202.533 93.4082 202.599 93.1484 202.731C92.8932 202.864 92.6722 203.046 92.4854 203.278C92.3031 203.511 92.1595 203.777 92.0547 204.078C91.9544 204.374 91.9043 204.689 91.9043 205.021ZM103.471 201.604H104.619V208.843C104.619 209.494 104.487 210.05 104.223 210.511C103.958 210.971 103.589 211.32 103.115 211.557C102.646 211.798 102.104 211.919 101.488 211.919C101.233 211.919 100.932 211.878 100.586 211.796C100.244 211.718 99.9069 211.584 99.5742 211.393C99.2461 211.206 98.9704 210.953 98.7471 210.634L99.4102 209.882C99.7201 210.256 100.044 210.515 100.381 210.661C100.723 210.807 101.06 210.88 101.393 210.88C101.794 210.88 102.14 210.805 102.432 210.654C102.723 210.504 102.949 210.281 103.108 209.984C103.272 209.693 103.354 209.333 103.354 208.904V203.23L103.471 201.604ZM98.3779 205.384V205.24C98.3779 204.675 98.444 204.162 98.5762 203.702C98.7129 203.237 98.9066 202.839 99.1572 202.506C99.4124 202.173 99.7201 201.918 100.08 201.74C100.44 201.558 100.846 201.467 101.297 201.467C101.762 201.467 102.167 201.549 102.514 201.713C102.865 201.872 103.161 202.107 103.402 202.417C103.648 202.722 103.842 203.091 103.983 203.524C104.125 203.957 104.223 204.447 104.277 204.994V205.623C104.227 206.165 104.129 206.653 103.983 207.086C103.842 207.519 103.648 207.888 103.402 208.193C103.161 208.499 102.865 208.733 102.514 208.897C102.163 209.057 101.753 209.137 101.283 209.137C100.841 209.137 100.44 209.043 100.08 208.856C99.7246 208.67 99.4193 208.408 99.1641 208.07C98.9089 207.733 98.7129 207.337 98.5762 206.881C98.444 206.421 98.3779 205.922 98.3779 205.384ZM99.6426 205.24V205.384C99.6426 205.753 99.679 206.099 99.752 206.423C99.8294 206.746 99.9456 207.031 100.101 207.277C100.26 207.523 100.463 207.717 100.709 207.858C100.955 207.995 101.249 208.063 101.591 208.063C102.01 208.063 102.356 207.975 102.63 207.797C102.903 207.619 103.12 207.384 103.279 207.093C103.443 206.801 103.571 206.484 103.662 206.143V204.495C103.612 204.244 103.535 204.003 103.43 203.771C103.329 203.534 103.197 203.324 103.033 203.142C102.874 202.955 102.675 202.807 102.438 202.697C102.201 202.588 101.924 202.533 101.604 202.533C101.258 202.533 100.96 202.606 100.709 202.752C100.463 202.893 100.26 203.089 100.101 203.34C99.9456 203.586 99.8294 203.873 99.752 204.201C99.679 204.525 99.6426 204.871 99.6426 205.24ZM114.538 207.291V201.604H115.81V209H114.6L114.538 207.291ZM114.777 205.732L115.304 205.719C115.304 206.211 115.251 206.667 115.146 207.086C115.046 207.501 114.882 207.861 114.654 208.166C114.426 208.471 114.128 208.711 113.759 208.884C113.39 209.052 112.941 209.137 112.412 209.137C112.052 209.137 111.722 209.084 111.421 208.979C111.125 208.875 110.869 208.713 110.655 208.494C110.441 208.275 110.275 207.991 110.156 207.64C110.042 207.289 109.985 206.867 109.985 206.375V201.604H111.25V206.389C111.25 206.721 111.286 206.997 111.359 207.216C111.437 207.43 111.539 207.601 111.667 207.729C111.799 207.852 111.945 207.938 112.104 207.988C112.269 208.038 112.437 208.063 112.61 208.063C113.148 208.063 113.574 207.961 113.889 207.756C114.203 207.546 114.429 207.266 114.565 206.915C114.707 206.56 114.777 206.165 114.777 205.732ZM122.044 207.038C122.044 206.856 122.003 206.687 121.921 206.532C121.843 206.373 121.682 206.229 121.436 206.102C121.194 205.969 120.829 205.855 120.342 205.76C119.932 205.673 119.56 205.571 119.228 205.452C118.899 205.334 118.619 205.19 118.387 205.021C118.159 204.853 117.983 204.655 117.86 204.427C117.737 204.199 117.676 203.932 117.676 203.627C117.676 203.335 117.74 203.06 117.867 202.8C117.999 202.54 118.184 202.31 118.421 202.109C118.662 201.909 118.952 201.752 119.289 201.638C119.626 201.524 120.002 201.467 120.417 201.467C121.009 201.467 121.515 201.572 121.935 201.781C122.354 201.991 122.675 202.271 122.898 202.622C123.122 202.968 123.233 203.354 123.233 203.777H121.969C121.969 203.572 121.907 203.374 121.784 203.183C121.666 202.987 121.49 202.825 121.258 202.697C121.03 202.57 120.75 202.506 120.417 202.506C120.066 202.506 119.781 202.561 119.562 202.67C119.348 202.775 119.191 202.909 119.091 203.073C118.995 203.237 118.947 203.41 118.947 203.593C118.947 203.729 118.97 203.853 119.016 203.962C119.066 204.067 119.152 204.165 119.275 204.256C119.398 204.342 119.572 204.424 119.795 204.502C120.018 204.579 120.303 204.657 120.649 204.734C121.256 204.871 121.755 205.035 122.146 205.227C122.538 205.418 122.83 205.653 123.021 205.931C123.213 206.209 123.309 206.546 123.309 206.942C123.309 207.266 123.24 207.562 123.104 207.831C122.971 208.1 122.778 208.332 122.522 208.528C122.272 208.72 121.971 208.87 121.62 208.979C121.274 209.084 120.884 209.137 120.451 209.137C119.799 209.137 119.248 209.021 118.797 208.788C118.346 208.556 118.004 208.255 117.771 207.886C117.539 207.517 117.423 207.127 117.423 206.717H118.694C118.713 207.063 118.813 207.339 118.995 207.544C119.177 207.744 119.401 207.888 119.665 207.975C119.929 208.057 120.191 208.098 120.451 208.098C120.798 208.098 121.087 208.052 121.319 207.961C121.556 207.87 121.736 207.744 121.859 207.585C121.982 207.425 122.044 207.243 122.044 207.038ZM128.039 209.137C127.524 209.137 127.057 209.05 126.638 208.877C126.223 208.699 125.865 208.451 125.564 208.132C125.268 207.813 125.04 207.435 124.881 206.997C124.721 206.56 124.642 206.081 124.642 205.562V205.274C124.642 204.673 124.73 204.137 124.908 203.668C125.086 203.194 125.327 202.793 125.633 202.465C125.938 202.137 126.285 201.888 126.672 201.72C127.059 201.551 127.46 201.467 127.875 201.467C128.404 201.467 128.859 201.558 129.242 201.74C129.63 201.923 129.946 202.178 130.192 202.506C130.438 202.829 130.621 203.212 130.739 203.654C130.858 204.092 130.917 204.57 130.917 205.09V205.657H125.394V204.625H129.652V204.529C129.634 204.201 129.566 203.882 129.447 203.572C129.333 203.262 129.151 203.007 128.9 202.807C128.65 202.606 128.308 202.506 127.875 202.506C127.588 202.506 127.324 202.567 127.082 202.69C126.84 202.809 126.633 202.987 126.46 203.224C126.287 203.461 126.152 203.75 126.057 204.092C125.961 204.434 125.913 204.828 125.913 205.274V205.562C125.913 205.912 125.961 206.243 126.057 206.553C126.157 206.858 126.3 207.127 126.487 207.359C126.679 207.592 126.909 207.774 127.178 207.906C127.451 208.038 127.761 208.104 128.107 208.104C128.554 208.104 128.932 208.013 129.242 207.831C129.552 207.649 129.823 207.405 130.056 207.1L130.821 207.708C130.662 207.95 130.459 208.18 130.213 208.398C129.967 208.617 129.664 208.795 129.304 208.932C128.948 209.068 128.527 209.137 128.039 209.137ZM133.658 202.766V209H132.394V201.604H133.624L133.658 202.766ZM135.969 201.562L135.962 202.738C135.857 202.715 135.757 202.702 135.661 202.697C135.57 202.688 135.465 202.684 135.347 202.684C135.055 202.684 134.798 202.729 134.574 202.82C134.351 202.911 134.162 203.039 134.007 203.203C133.852 203.367 133.729 203.563 133.638 203.791C133.551 204.014 133.494 204.26 133.467 204.529L133.111 204.734C133.111 204.288 133.155 203.868 133.241 203.477C133.332 203.085 133.471 202.738 133.658 202.438C133.845 202.132 134.082 201.895 134.369 201.727C134.661 201.553 135.007 201.467 135.408 201.467C135.499 201.467 135.604 201.478 135.723 201.501C135.841 201.519 135.923 201.54 135.969 201.562ZM138.402 203.183V209H137.138V201.604H138.334L138.402 203.183ZM138.102 205.021L137.575 205.001C137.58 204.495 137.655 204.028 137.801 203.6C137.947 203.167 138.152 202.791 138.416 202.472C138.68 202.153 138.995 201.907 139.359 201.733C139.729 201.556 140.136 201.467 140.583 201.467C140.948 201.467 141.276 201.517 141.567 201.617C141.859 201.713 142.107 201.868 142.312 202.082C142.522 202.296 142.682 202.574 142.791 202.916C142.9 203.253 142.955 203.666 142.955 204.153V209H141.684V204.14C141.684 203.752 141.627 203.442 141.513 203.21C141.399 202.973 141.232 202.802 141.014 202.697C140.795 202.588 140.526 202.533 140.207 202.533C139.893 202.533 139.605 202.599 139.346 202.731C139.09 202.864 138.869 203.046 138.683 203.278C138.5 203.511 138.357 203.777 138.252 204.078C138.152 204.374 138.102 204.689 138.102 205.021ZM149.237 207.735V203.928C149.237 203.636 149.178 203.383 149.06 203.169C148.946 202.95 148.772 202.782 148.54 202.663C148.308 202.545 148.021 202.485 147.679 202.485C147.36 202.485 147.079 202.54 146.838 202.649C146.601 202.759 146.414 202.902 146.277 203.08C146.145 203.258 146.079 203.449 146.079 203.654H144.814C144.814 203.39 144.883 203.128 145.02 202.868C145.156 202.608 145.352 202.374 145.607 202.164C145.867 201.95 146.177 201.781 146.537 201.658C146.902 201.531 147.307 201.467 147.754 201.467C148.292 201.467 148.766 201.558 149.176 201.74C149.59 201.923 149.914 202.198 150.146 202.567C150.383 202.932 150.502 203.39 150.502 203.941V207.387C150.502 207.633 150.522 207.895 150.563 208.173C150.609 208.451 150.675 208.69 150.762 208.891V209H149.442C149.379 208.854 149.328 208.66 149.292 208.419C149.256 208.173 149.237 207.945 149.237 207.735ZM149.456 204.516L149.47 205.404H148.191C147.831 205.404 147.51 205.434 147.228 205.493C146.945 205.548 146.708 205.632 146.517 205.746C146.325 205.86 146.179 206.004 146.079 206.177C145.979 206.345 145.929 206.544 145.929 206.771C145.929 207.004 145.981 207.216 146.086 207.407C146.191 207.599 146.348 207.751 146.558 207.865C146.772 207.975 147.034 208.029 147.344 208.029C147.731 208.029 148.073 207.947 148.369 207.783C148.665 207.619 148.9 207.419 149.073 207.182C149.251 206.945 149.347 206.715 149.36 206.491L149.9 207.1C149.868 207.291 149.782 207.503 149.641 207.735C149.499 207.968 149.31 208.191 149.073 208.405C148.841 208.615 148.563 208.79 148.239 208.932C147.92 209.068 147.56 209.137 147.159 209.137C146.658 209.137 146.218 209.039 145.84 208.843C145.466 208.647 145.174 208.385 144.965 208.057C144.76 207.724 144.657 207.353 144.657 206.942C144.657 206.546 144.735 206.197 144.89 205.896C145.045 205.591 145.268 205.338 145.56 205.138C145.851 204.933 146.202 204.778 146.612 204.673C147.022 204.568 147.48 204.516 147.986 204.516H149.456ZM153.749 203.073V209H152.478V201.604H153.681L153.749 203.073ZM153.489 205.021L152.901 205.001C152.906 204.495 152.972 204.028 153.1 203.6C153.227 203.167 153.416 202.791 153.667 202.472C153.918 202.153 154.23 201.907 154.604 201.733C154.977 201.556 155.41 201.467 155.902 201.467C156.249 201.467 156.568 201.517 156.859 201.617C157.151 201.713 157.404 201.866 157.618 202.075C157.832 202.285 157.999 202.554 158.117 202.882C158.236 203.21 158.295 203.606 158.295 204.071V209H157.03V204.133C157.03 203.745 156.964 203.436 156.832 203.203C156.704 202.971 156.522 202.802 156.285 202.697C156.048 202.588 155.77 202.533 155.451 202.533C155.077 202.533 154.765 202.599 154.515 202.731C154.264 202.864 154.063 203.046 153.913 203.278C153.763 203.511 153.653 203.777 153.585 204.078C153.521 204.374 153.489 204.689 153.489 205.021ZM158.281 204.324L157.434 204.584C157.438 204.178 157.504 203.789 157.632 203.415C157.764 203.041 157.953 202.709 158.199 202.417C158.45 202.125 158.757 201.895 159.122 201.727C159.487 201.553 159.904 201.467 160.373 201.467C160.77 201.467 161.12 201.519 161.426 201.624C161.736 201.729 161.995 201.891 162.205 202.109C162.419 202.324 162.581 202.599 162.69 202.937C162.8 203.274 162.854 203.675 162.854 204.14V209H161.583V204.126C161.583 203.711 161.517 203.39 161.385 203.162C161.257 202.93 161.075 202.768 160.838 202.677C160.605 202.581 160.327 202.533 160.004 202.533C159.726 202.533 159.48 202.581 159.266 202.677C159.051 202.772 158.871 202.905 158.726 203.073C158.58 203.237 158.468 203.426 158.391 203.641C158.318 203.855 158.281 204.083 158.281 204.324ZM167.838 209.137C167.323 209.137 166.856 209.05 166.437 208.877C166.022 208.699 165.664 208.451 165.363 208.132C165.067 207.813 164.839 207.435 164.68 206.997C164.52 206.56 164.44 206.081 164.44 205.562V205.274C164.44 204.673 164.529 204.137 164.707 203.668C164.885 203.194 165.126 202.793 165.432 202.465C165.737 202.137 166.083 201.888 166.471 201.72C166.858 201.551 167.259 201.467 167.674 201.467C168.202 201.467 168.658 201.558 169.041 201.74C169.428 201.923 169.745 202.178 169.991 202.506C170.237 202.829 170.42 203.212 170.538 203.654C170.657 204.092 170.716 204.57 170.716 205.09V205.657H165.192V204.625H169.451V204.529C169.433 204.201 169.365 203.882 169.246 203.572C169.132 203.262 168.95 203.007 168.699 202.807C168.449 202.606 168.107 202.506 167.674 202.506C167.387 202.506 167.122 202.567 166.881 202.69C166.639 202.809 166.432 202.987 166.259 203.224C166.086 203.461 165.951 203.75 165.855 204.092C165.76 204.434 165.712 204.828 165.712 205.274V205.562C165.712 205.912 165.76 206.243 165.855 206.553C165.956 206.858 166.099 207.127 166.286 207.359C166.478 207.592 166.708 207.774 166.977 207.906C167.25 208.038 167.56 208.104 167.906 208.104C168.353 208.104 168.731 208.013 169.041 207.831C169.351 207.649 169.622 207.405 169.854 207.1L170.62 207.708C170.461 207.95 170.258 208.18 170.012 208.398C169.766 208.617 169.463 208.795 169.103 208.932C168.747 209.068 168.326 209.137 167.838 209.137ZM180.026 207.735V203.928C180.026 203.636 179.967 203.383 179.849 203.169C179.735 202.95 179.562 202.782 179.329 202.663C179.097 202.545 178.81 202.485 178.468 202.485C178.149 202.485 177.868 202.54 177.627 202.649C177.39 202.759 177.203 202.902 177.066 203.08C176.934 203.258 176.868 203.449 176.868 203.654H175.604C175.604 203.39 175.672 203.128 175.809 202.868C175.945 202.608 176.141 202.374 176.396 202.164C176.656 201.95 176.966 201.781 177.326 201.658C177.691 201.531 178.096 201.467 178.543 201.467C179.081 201.467 179.555 201.558 179.965 201.74C180.38 201.923 180.703 202.198 180.936 202.567C181.173 202.932 181.291 203.39 181.291 203.941V207.387C181.291 207.633 181.312 207.895 181.353 208.173C181.398 208.451 181.464 208.69 181.551 208.891V209H180.231C180.168 208.854 180.118 208.66 180.081 208.419C180.045 208.173 180.026 207.945 180.026 207.735ZM180.245 204.516L180.259 205.404H178.98C178.62 205.404 178.299 205.434 178.017 205.493C177.734 205.548 177.497 205.632 177.306 205.746C177.114 205.86 176.968 206.004 176.868 206.177C176.768 206.345 176.718 206.544 176.718 206.771C176.718 207.004 176.77 207.216 176.875 207.407C176.98 207.599 177.137 207.751 177.347 207.865C177.561 207.975 177.823 208.029 178.133 208.029C178.52 208.029 178.862 207.947 179.158 207.783C179.454 207.619 179.689 207.419 179.862 207.182C180.04 206.945 180.136 206.715 180.149 206.491L180.689 207.1C180.658 207.291 180.571 207.503 180.43 207.735C180.288 207.968 180.099 208.191 179.862 208.405C179.63 208.615 179.352 208.79 179.028 208.932C178.709 209.068 178.349 209.137 177.948 209.137C177.447 209.137 177.007 209.039 176.629 208.843C176.255 208.647 175.964 208.385 175.754 208.057C175.549 207.724 175.446 207.353 175.446 206.942C175.446 206.546 175.524 206.197 175.679 205.896C175.834 205.591 176.057 205.338 176.349 205.138C176.64 204.933 176.991 204.778 177.401 204.673C177.812 204.568 178.27 204.516 178.775 204.516H180.245ZM184.545 203.183V209H183.28V201.604H184.477L184.545 203.183ZM184.244 205.021L183.718 205.001C183.722 204.495 183.798 204.028 183.943 203.6C184.089 203.167 184.294 202.791 184.559 202.472C184.823 202.153 185.137 201.907 185.502 201.733C185.871 201.556 186.279 201.467 186.726 201.467C187.09 201.467 187.418 201.517 187.71 201.617C188.002 201.713 188.25 201.868 188.455 202.082C188.665 202.296 188.824 202.574 188.934 202.916C189.043 203.253 189.098 203.666 189.098 204.153V209H187.826V204.14C187.826 203.752 187.769 203.442 187.655 203.21C187.541 202.973 187.375 202.802 187.156 202.697C186.938 202.588 186.669 202.533 186.35 202.533C186.035 202.533 185.748 202.599 185.488 202.731C185.233 202.864 185.012 203.046 184.825 203.278C184.643 203.511 184.499 203.777 184.395 204.078C184.294 204.374 184.244 204.689 184.244 205.021ZM195.681 207.564V198.5H196.952V209H195.79L195.681 207.564ZM190.704 205.384V205.24C190.704 204.675 190.772 204.162 190.909 203.702C191.05 203.237 191.249 202.839 191.504 202.506C191.764 202.173 192.071 201.918 192.427 201.74C192.787 201.558 193.188 201.467 193.63 201.467C194.095 201.467 194.5 201.549 194.847 201.713C195.198 201.872 195.494 202.107 195.735 202.417C195.981 202.722 196.175 203.091 196.316 203.524C196.458 203.957 196.556 204.447 196.61 204.994V205.623C196.56 206.165 196.462 206.653 196.316 207.086C196.175 207.519 195.981 207.888 195.735 208.193C195.494 208.499 195.198 208.733 194.847 208.897C194.496 209.057 194.086 209.137 193.616 209.137C193.183 209.137 192.787 209.043 192.427 208.856C192.071 208.67 191.764 208.408 191.504 208.07C191.249 207.733 191.05 207.337 190.909 206.881C190.772 206.421 190.704 205.922 190.704 205.384ZM191.976 205.24V205.384C191.976 205.753 192.012 206.099 192.085 206.423C192.162 206.746 192.281 207.031 192.44 207.277C192.6 207.523 192.803 207.717 193.049 207.858C193.295 207.995 193.589 208.063 193.931 208.063C194.35 208.063 194.694 207.975 194.963 207.797C195.236 207.619 195.455 207.384 195.619 207.093C195.783 206.801 195.911 206.484 196.002 206.143V204.495C195.947 204.244 195.868 204.003 195.763 203.771C195.662 203.534 195.53 203.324 195.366 203.142C195.207 202.955 195.008 202.807 194.771 202.697C194.539 202.588 194.263 202.533 193.944 202.533C193.598 202.533 193.299 202.606 193.049 202.752C192.803 202.893 192.6 203.089 192.44 203.34C192.281 203.586 192.162 203.873 192.085 204.201C192.012 204.525 191.976 204.871 191.976 205.24ZM203.658 203.025V211.844H202.387V201.604H203.549L203.658 203.025ZM208.642 205.24V205.384C208.642 205.922 208.578 206.421 208.45 206.881C208.323 207.337 208.136 207.733 207.89 208.07C207.648 208.408 207.35 208.67 206.994 208.856C206.639 209.043 206.231 209.137 205.771 209.137C205.301 209.137 204.886 209.059 204.526 208.904C204.166 208.749 203.861 208.524 203.61 208.228C203.36 207.931 203.159 207.576 203.009 207.161C202.863 206.746 202.763 206.279 202.708 205.76V204.994C202.763 204.447 202.865 203.957 203.016 203.524C203.166 203.091 203.364 202.722 203.61 202.417C203.861 202.107 204.164 201.872 204.52 201.713C204.875 201.549 205.285 201.467 205.75 201.467C206.215 201.467 206.627 201.558 206.987 201.74C207.347 201.918 207.65 202.173 207.896 202.506C208.143 202.839 208.327 203.237 208.45 203.702C208.578 204.162 208.642 204.675 208.642 205.24ZM207.37 205.384V205.24C207.37 204.871 207.331 204.525 207.254 204.201C207.176 203.873 207.056 203.586 206.892 203.34C206.732 203.089 206.527 202.893 206.276 202.752C206.026 202.606 205.727 202.533 205.381 202.533C205.062 202.533 204.784 202.588 204.547 202.697C204.314 202.807 204.116 202.955 203.952 203.142C203.788 203.324 203.654 203.534 203.549 203.771C203.449 204.003 203.373 204.244 203.323 204.495V206.266C203.414 206.585 203.542 206.885 203.706 207.168C203.87 207.446 204.089 207.672 204.362 207.845C204.636 208.013 204.98 208.098 205.395 208.098C205.736 208.098 206.03 208.027 206.276 207.886C206.527 207.74 206.732 207.542 206.892 207.291C207.056 207.04 207.176 206.753 207.254 206.43C207.331 206.102 207.37 205.753 207.37 205.384ZM214.616 207.735V203.928C214.616 203.636 214.557 203.383 214.438 203.169C214.325 202.95 214.151 202.782 213.919 202.663C213.687 202.545 213.399 202.485 213.058 202.485C212.739 202.485 212.458 202.54 212.217 202.649C211.98 202.759 211.793 202.902 211.656 203.08C211.524 203.258 211.458 203.449 211.458 203.654H210.193C210.193 203.39 210.262 203.128 210.398 202.868C210.535 202.608 210.731 202.374 210.986 202.164C211.246 201.95 211.556 201.781 211.916 201.658C212.281 201.531 212.686 201.467 213.133 201.467C213.671 201.467 214.145 201.558 214.555 201.74C214.969 201.923 215.293 202.198 215.525 202.567C215.762 202.932 215.881 203.39 215.881 203.941V207.387C215.881 207.633 215.901 207.895 215.942 208.173C215.988 208.451 216.054 208.69 216.141 208.891V209H214.821C214.757 208.854 214.707 208.66 214.671 208.419C214.634 208.173 214.616 207.945 214.616 207.735ZM214.835 204.516L214.849 205.404H213.57C213.21 205.404 212.889 205.434 212.606 205.493C212.324 205.548 212.087 205.632 211.896 205.746C211.704 205.86 211.558 206.004 211.458 206.177C211.358 206.345 211.308 206.544 211.308 206.771C211.308 207.004 211.36 207.216 211.465 207.407C211.57 207.599 211.727 207.751 211.937 207.865C212.151 207.975 212.413 208.029 212.723 208.029C213.11 208.029 213.452 207.947 213.748 207.783C214.044 207.619 214.279 207.419 214.452 207.182C214.63 206.945 214.726 206.715 214.739 206.491L215.279 207.1C215.247 207.291 215.161 207.503 215.02 207.735C214.878 207.968 214.689 208.191 214.452 208.405C214.22 208.615 213.942 208.79 213.618 208.932C213.299 209.068 212.939 209.137 212.538 209.137C212.037 209.137 211.597 209.039 211.219 208.843C210.845 208.647 210.553 208.385 210.344 208.057C210.139 207.724 210.036 207.353 210.036 206.942C210.036 206.546 210.114 206.197 210.269 205.896C210.424 205.591 210.647 205.338 210.938 205.138C211.23 204.933 211.581 204.778 211.991 204.673C212.401 204.568 212.859 204.516 213.365 204.516H214.835ZM222.177 207.038C222.177 206.856 222.136 206.687 222.054 206.532C221.976 206.373 221.814 206.229 221.568 206.102C221.327 205.969 220.962 205.855 220.475 205.76C220.064 205.673 219.693 205.571 219.36 205.452C219.032 205.334 218.752 205.19 218.52 205.021C218.292 204.853 218.116 204.655 217.993 204.427C217.87 204.199 217.809 203.932 217.809 203.627C217.809 203.335 217.872 203.06 218 202.8C218.132 202.54 218.317 202.31 218.554 202.109C218.795 201.909 219.085 201.752 219.422 201.638C219.759 201.524 220.135 201.467 220.55 201.467C221.142 201.467 221.648 201.572 222.067 201.781C222.487 201.991 222.808 202.271 223.031 202.622C223.255 202.968 223.366 203.354 223.366 203.777H222.102C222.102 203.572 222.04 203.374 221.917 203.183C221.799 202.987 221.623 202.825 221.391 202.697C221.163 202.57 220.882 202.506 220.55 202.506C220.199 202.506 219.914 202.561 219.695 202.67C219.481 202.775 219.324 202.909 219.224 203.073C219.128 203.237 219.08 203.41 219.08 203.593C219.08 203.729 219.103 203.853 219.148 203.962C219.199 204.067 219.285 204.165 219.408 204.256C219.531 204.342 219.704 204.424 219.928 204.502C220.151 204.579 220.436 204.657 220.782 204.734C221.388 204.871 221.887 205.035 222.279 205.227C222.671 205.418 222.963 205.653 223.154 205.931C223.346 206.209 223.441 206.546 223.441 206.942C223.441 207.266 223.373 207.562 223.236 207.831C223.104 208.1 222.91 208.332 222.655 208.528C222.405 208.72 222.104 208.87 221.753 208.979C221.407 209.084 221.017 209.137 220.584 209.137C219.932 209.137 219.381 209.021 218.93 208.788C218.479 208.556 218.137 208.255 217.904 207.886C217.672 207.517 217.556 207.127 217.556 206.717H218.827C218.845 207.063 218.946 207.339 219.128 207.544C219.31 207.744 219.534 207.888 219.798 207.975C220.062 208.057 220.324 208.098 220.584 208.098C220.93 208.098 221.22 208.052 221.452 207.961C221.689 207.87 221.869 207.744 221.992 207.585C222.115 207.425 222.177 207.243 222.177 207.038ZM229.409 207.038C229.409 206.856 229.368 206.687 229.286 206.532C229.209 206.373 229.047 206.229 228.801 206.102C228.559 205.969 228.195 205.855 227.707 205.76C227.297 205.673 226.925 205.571 226.593 205.452C226.265 205.334 225.984 205.19 225.752 205.021C225.524 204.853 225.349 204.655 225.226 204.427C225.103 204.199 225.041 203.932 225.041 203.627C225.041 203.335 225.105 203.06 225.232 202.8C225.365 202.54 225.549 202.31 225.786 202.109C226.028 201.909 226.317 201.752 226.654 201.638C226.992 201.524 227.368 201.467 227.782 201.467C228.375 201.467 228.881 201.572 229.3 201.781C229.719 201.991 230.04 202.271 230.264 202.622C230.487 202.968 230.599 203.354 230.599 203.777H229.334C229.334 203.572 229.272 203.374 229.149 203.183C229.031 202.987 228.855 202.825 228.623 202.697C228.395 202.57 228.115 202.506 227.782 202.506C227.431 202.506 227.146 202.561 226.928 202.67C226.714 202.775 226.556 202.909 226.456 203.073C226.36 203.237 226.312 203.41 226.312 203.593C226.312 203.729 226.335 203.853 226.381 203.962C226.431 204.067 226.518 204.165 226.641 204.256C226.764 204.342 226.937 204.424 227.16 204.502C227.383 204.579 227.668 204.657 228.015 204.734C228.621 204.871 229.12 205.035 229.512 205.227C229.904 205.418 230.195 205.653 230.387 205.931C230.578 206.209 230.674 206.546 230.674 206.942C230.674 207.266 230.605 207.562 230.469 207.831C230.337 208.1 230.143 208.332 229.888 208.528C229.637 208.72 229.336 208.87 228.985 208.979C228.639 209.084 228.249 209.137 227.816 209.137C227.165 209.137 226.613 209.021 226.162 208.788C225.711 208.556 225.369 208.255 225.137 207.886C224.904 207.517 224.788 207.127 224.788 206.717H226.06C226.078 207.063 226.178 207.339 226.36 207.544C226.543 207.744 226.766 207.888 227.03 207.975C227.295 208.057 227.557 208.098 227.816 208.098C228.163 208.098 228.452 208.052 228.685 207.961C228.922 207.87 229.102 207.744 229.225 207.585C229.348 207.425 229.409 207.243 229.409 207.038ZM234.208 207.688L236.108 201.604H236.942L236.778 202.813L234.844 209H234.03L234.208 207.688ZM232.93 201.604L234.55 207.756L234.666 209H233.812L231.665 201.604H232.93ZM238.761 207.708L240.306 201.604H241.563L239.417 209H238.569L238.761 207.708ZM237.127 201.604L238.986 207.585L239.198 209H238.392L236.402 202.8L236.238 201.604H237.127ZM242.527 205.384V205.227C242.527 204.693 242.605 204.199 242.76 203.743C242.915 203.283 243.138 202.884 243.43 202.547C243.721 202.205 244.075 201.941 244.489 201.754C244.904 201.562 245.369 201.467 245.884 201.467C246.403 201.467 246.87 201.562 247.285 201.754C247.704 201.941 248.06 202.205 248.352 202.547C248.648 202.884 248.873 203.283 249.028 203.743C249.183 204.199 249.261 204.693 249.261 205.227V205.384C249.261 205.917 249.183 206.411 249.028 206.867C248.873 207.323 248.648 207.722 248.352 208.063C248.06 208.401 247.707 208.665 247.292 208.856C246.882 209.043 246.417 209.137 245.897 209.137C245.378 209.137 244.911 209.043 244.496 208.856C244.081 208.665 243.726 208.401 243.43 208.063C243.138 207.722 242.915 207.323 242.76 206.867C242.605 206.411 242.527 205.917 242.527 205.384ZM243.792 205.227V205.384C243.792 205.753 243.835 206.102 243.922 206.43C244.008 206.753 244.138 207.04 244.312 207.291C244.489 207.542 244.71 207.74 244.975 207.886C245.239 208.027 245.547 208.098 245.897 208.098C246.244 208.098 246.547 208.027 246.807 207.886C247.071 207.74 247.29 207.542 247.463 207.291C247.636 207.04 247.766 206.753 247.853 206.43C247.944 206.102 247.989 205.753 247.989 205.384V205.227C247.989 204.862 247.944 204.518 247.853 204.194C247.766 203.866 247.634 203.577 247.456 203.326C247.283 203.071 247.064 202.87 246.8 202.725C246.54 202.579 246.235 202.506 245.884 202.506C245.537 202.506 245.232 202.579 244.968 202.725C244.708 202.87 244.489 203.071 244.312 203.326C244.138 203.577 244.008 203.866 243.922 204.194C243.835 204.518 243.792 204.862 243.792 205.227ZM252.111 202.766V209H250.847V201.604H252.077L252.111 202.766ZM254.422 201.562L254.415 202.738C254.31 202.715 254.21 202.702 254.114 202.697C254.023 202.688 253.918 202.684 253.8 202.684C253.508 202.684 253.251 202.729 253.027 202.82C252.804 202.911 252.615 203.039 252.46 203.203C252.305 203.367 252.182 203.563 252.091 203.791C252.004 204.014 251.947 204.26 251.92 204.529L251.564 204.734C251.564 204.288 251.608 203.868 251.694 203.477C251.785 203.085 251.924 202.738 252.111 202.438C252.298 202.132 252.535 201.895 252.822 201.727C253.114 201.553 253.46 201.467 253.861 201.467C253.952 201.467 254.057 201.478 254.176 201.501C254.294 201.519 254.376 201.54 254.422 201.562ZM260.116 207.564V198.5H261.388V209H260.226L260.116 207.564ZM255.14 205.384V205.24C255.14 204.675 255.208 204.162 255.345 203.702C255.486 203.237 255.684 202.839 255.939 202.506C256.199 202.173 256.507 201.918 256.862 201.74C257.222 201.558 257.623 201.467 258.065 201.467C258.53 201.467 258.936 201.549 259.282 201.713C259.633 201.872 259.929 202.107 260.171 202.417C260.417 202.722 260.611 203.091 260.752 203.524C260.893 203.957 260.991 204.447 261.046 204.994V205.623C260.996 206.165 260.898 206.653 260.752 207.086C260.611 207.519 260.417 207.888 260.171 208.193C259.929 208.499 259.633 208.733 259.282 208.897C258.931 209.057 258.521 209.137 258.052 209.137C257.619 209.137 257.222 209.043 256.862 208.856C256.507 208.67 256.199 208.408 255.939 208.07C255.684 207.733 255.486 207.337 255.345 206.881C255.208 206.421 255.14 205.922 255.14 205.384ZM256.411 205.24V205.384C256.411 205.753 256.448 206.099 256.521 206.423C256.598 206.746 256.716 207.031 256.876 207.277C257.035 207.523 257.238 207.717 257.484 207.858C257.73 207.995 258.024 208.063 258.366 208.063C258.785 208.063 259.13 207.975 259.398 207.797C259.672 207.619 259.891 207.384 260.055 207.093C260.219 206.801 260.346 206.484 260.438 206.143V204.495C260.383 204.244 260.303 204.003 260.198 203.771C260.098 203.534 259.966 203.324 259.802 203.142C259.642 202.955 259.444 202.807 259.207 202.697C258.975 202.588 258.699 202.533 258.38 202.533C258.034 202.533 257.735 202.606 257.484 202.752C257.238 202.893 257.035 203.089 256.876 203.34C256.716 203.586 256.598 203.873 256.521 204.201C256.448 204.525 256.411 204.871 256.411 205.24Z" fill="black"/>
<defs>
<filter id="filter0_d_4495_31354" x="94" y="0" width="108" height="108" filterUnits="userSpaceOnUse" color-interpolation-filters="sRGB">
<feFlood flood-opacity="0" result="BackgroundImageFix"/>
<feColorMatrix in="SourceAlpha" type="matrix" values="0 0 0 0 0 0 0 0 0 0 0 0 0 0 0 0 0 0 127 0" result="hardAlpha"/>
<feOffset dy="2"/>
<feGaussianBlur stdDeviation="1"/>
<feComposite in2="hardAlpha" operator="out"/>
<feColorMatrix type="matrix" values="0 0 0 0 0 0 0 0 0 0 0 0 0 0 0 0 0 0 0.2 0"/>
<feBlend mode="normal" in2="BackgroundImageFix" result="effect1_dropShadow_4495_31354"/>
<feBlend mode="normal" in="SourceGraphic" in2="effect1_dropShadow_4495_31354" result="shape"/>
</filter>
<filter id="filter1_d_4495_31354" x="86" y="0" width="124" height="124" filterUnits="userSpaceOnUse" color-interpolation-filters="sRGB">
<feFlood flood-opacity="0" result="BackgroundImageFix"/>
<feColorMatrix in="SourceAlpha" type="matrix" values="0 0 0 0 0 0 0 0 0 0 0 0 0 0 0 0 0 0 127 0" result="hardAlpha"/>
<feOffset dy="10"/>
<feGaussianBlur stdDeviation="5"/>
<feComposite in2="hardAlpha" operator="out"/>
<feColorMatrix type="matrix" values="0 0 0 0 0 0 0 0 0 0 0 0 0 0 0 0 0 0 0.15 0"/>
<feBlend mode="normal" in2="BackgroundImageFix" result="effect1_dropShadow_4495_31354"/>
<feBlend mode="normal" in="SourceGraphic" in2="effect1_dropShadow_4495_31354" result="shape"/>
</filter>
</defs>
</svg>
